%
M48
M72
T01C0.0118
T02C0.0157
T03C0.0197
T04C0.0236
T05C0.0276
T06C0.0315
T07C0.0320
T08C0.0354
T09C0.0394
T10C0.0433
T11C0.0472
T12C0.0512
T13C0.0551
T14C0.0591
T15C0.0630
T16C0.0787
T17C0.0866
T18C0.1102
T19C0.1181
T20C0.1260
%
T01
X5315Y11302
T02
X5315Y11892
T03
X5315Y12483
T04
X5315Y13073
T05
X5315Y13664
T06
X5315Y14354
T07
X7297Y13100
X9297Y13100
X7297Y14600
X10297Y14600
X7297Y16200
X10297Y16200
X7297Y17900
X11297Y17900
X7276Y11614
X8276Y11614
T08
X5315Y15042
T09
X5315Y15729
T10
X5315Y16517
T11
X5340Y17311
T12
X3640Y11495
T13
X3640Y12580
T14
X3640Y13761
T15
X3640Y14942
T16
X3640Y16420
T17
X1575Y11708
T18
X1575Y17717
X1575Y13283
T19
X17520Y17520
T20
X17520Y1575
X1575Y15054
M30
