G75*
G70*
%OFA0B0*%
%FSLAX24Y24*%
%IPPOS*%
%LPD*%
%AMOC8*
5,1,8,0,0,1.08239X$1,22.5*
%
%ADD10C,0.0004*%
%ADD11C,0.0040*%
%ADD12C,0.0020*%
%ADD13C,0.0050*%
%ADD14C,0.0010*%
%ADD15C,0.0030*%
%ADD16C,0.0060*%
%ADD17C,0.0070*%
%ADD18C,0.0080*%
%ADD19C,0.0000*%
%ADD20R,0.0150X0.0200*%
%ADD21R,0.0340X0.0240*%
%ADD22C,0.0100*%
%ADD23C,0.0200*%
D10*
X002079Y000131D02*
X004048Y000131D01*
X017434Y000131D01*
X017528Y000133D01*
X017621Y000140D01*
X017714Y000151D01*
X017807Y000167D01*
X017898Y000187D01*
X017989Y000211D01*
X018078Y000239D01*
X018166Y000272D01*
X018252Y000309D01*
X018336Y000350D01*
X018419Y000395D01*
X018499Y000444D01*
X018576Y000496D01*
X018651Y000552D01*
X018723Y000612D01*
X018793Y000675D01*
X018859Y000741D01*
X018922Y000811D01*
X018982Y000883D01*
X019038Y000958D01*
X019090Y001035D01*
X019139Y001116D01*
X019184Y001198D01*
X019225Y001282D01*
X019262Y001368D01*
X019295Y001456D01*
X019323Y001545D01*
X019347Y001636D01*
X019367Y001727D01*
X019383Y001820D01*
X019394Y001913D01*
X019401Y002006D01*
X019403Y002100D01*
X019402Y002100D02*
X019402Y008399D01*
X019402Y017454D01*
X019403Y017454D02*
X019401Y017548D01*
X019394Y017641D01*
X019383Y017734D01*
X019367Y017827D01*
X019347Y017918D01*
X019323Y018009D01*
X019295Y018098D01*
X019262Y018186D01*
X019225Y018272D01*
X019184Y018356D01*
X019139Y018438D01*
X019090Y018519D01*
X019038Y018596D01*
X018982Y018671D01*
X018922Y018743D01*
X018859Y018813D01*
X018793Y018879D01*
X018723Y018942D01*
X018651Y019002D01*
X018576Y019058D01*
X018499Y019110D01*
X018418Y019159D01*
X018336Y019204D01*
X018252Y019245D01*
X018166Y019282D01*
X018078Y019315D01*
X017989Y019343D01*
X017898Y019367D01*
X017807Y019387D01*
X017714Y019403D01*
X017621Y019414D01*
X017528Y019421D01*
X017434Y019423D01*
X017434Y019422D02*
X015859Y019422D01*
X002079Y019422D01*
X002079Y019423D02*
X001985Y019421D01*
X001892Y019414D01*
X001799Y019403D01*
X001706Y019387D01*
X001615Y019367D01*
X001524Y019343D01*
X001435Y019315D01*
X001347Y019282D01*
X001261Y019245D01*
X001177Y019204D01*
X001094Y019159D01*
X001014Y019110D01*
X000937Y019058D01*
X000862Y019002D01*
X000790Y018942D01*
X000720Y018879D01*
X000654Y018813D01*
X000591Y018743D01*
X000531Y018671D01*
X000475Y018596D01*
X000423Y018519D01*
X000374Y018439D01*
X000329Y018356D01*
X000288Y018272D01*
X000251Y018186D01*
X000218Y018098D01*
X000190Y018009D01*
X000166Y017918D01*
X000146Y017827D01*
X000130Y017734D01*
X000119Y017641D01*
X000112Y017548D01*
X000110Y017454D01*
X000111Y017454D02*
X000111Y012336D01*
X000111Y002100D01*
X000110Y002100D02*
X000112Y002006D01*
X000119Y001913D01*
X000130Y001820D01*
X000146Y001727D01*
X000166Y001636D01*
X000190Y001545D01*
X000218Y001456D01*
X000251Y001368D01*
X000288Y001282D01*
X000329Y001198D01*
X000374Y001116D01*
X000423Y001035D01*
X000475Y000958D01*
X000531Y000883D01*
X000591Y000811D01*
X000654Y000741D01*
X000720Y000675D01*
X000790Y000612D01*
X000862Y000552D01*
X000937Y000496D01*
X001014Y000444D01*
X001094Y000395D01*
X001177Y000350D01*
X001261Y000309D01*
X001347Y000272D01*
X001435Y000239D01*
X001524Y000211D01*
X001615Y000187D01*
X001706Y000167D01*
X001799Y000151D01*
X001892Y000140D01*
X001985Y000133D01*
X002079Y000131D01*
D11*
X001521Y000901D02*
X000881Y000901D01*
X001201Y000901D02*
X001201Y001862D01*
X000881Y001542D01*
X001802Y001702D02*
X001802Y001061D01*
X002442Y001702D01*
X002442Y001061D01*
X002282Y000901D01*
X001962Y000901D01*
X001802Y001061D01*
X001802Y001702D02*
X001962Y001862D01*
X002282Y001862D01*
X002442Y001702D01*
X002722Y001702D02*
X002882Y001862D01*
X003203Y001862D01*
X003363Y001702D01*
X002722Y001061D01*
X002882Y000901D01*
X003203Y000901D01*
X003363Y001061D01*
X003363Y001702D01*
X003643Y001542D02*
X003803Y001542D01*
X003963Y001381D01*
X004124Y001542D01*
X004284Y001381D01*
X004284Y000901D01*
X003963Y000901D02*
X003963Y001381D01*
X003643Y001542D02*
X003643Y000901D01*
X004564Y000901D02*
X004884Y000901D01*
X004724Y000901D02*
X004724Y001542D01*
X004564Y001542D01*
X004724Y001862D02*
X004724Y002022D01*
X005178Y001862D02*
X005338Y001862D01*
X005338Y000901D01*
X005178Y000901D02*
X005498Y000901D01*
X005791Y001381D02*
X006432Y001381D01*
X006712Y001702D02*
X006712Y001862D01*
X006872Y001862D01*
X006872Y001702D01*
X006712Y001702D01*
X006272Y001862D02*
X005791Y001381D01*
X006272Y000901D02*
X006272Y001862D01*
X006712Y000901D02*
X007513Y001862D01*
X007513Y001061D02*
X007353Y001061D01*
X007353Y000901D01*
X007513Y000901D01*
X007513Y001061D01*
X007462Y004151D02*
X007462Y004381D01*
X007539Y004458D01*
X007616Y004381D01*
X007616Y004151D01*
X007769Y004151D02*
X007923Y004151D01*
X007846Y004151D02*
X007846Y004458D01*
X007769Y004458D01*
X007846Y004611D02*
X007846Y004688D01*
X007920Y004841D02*
X008093Y004841D01*
X008007Y004841D02*
X008007Y005361D01*
X007920Y005361D01*
X007663Y005361D02*
X007663Y005448D01*
X007663Y005188D02*
X007576Y005188D01*
X007663Y005188D02*
X007663Y004841D01*
X007576Y004841D02*
X007750Y004841D01*
X007407Y004841D02*
X007407Y005101D01*
X007321Y005188D01*
X007234Y005101D01*
X007234Y004841D01*
X007060Y004841D02*
X007060Y005188D01*
X007147Y005188D01*
X007234Y005101D01*
X006892Y005014D02*
X006805Y005101D01*
X006545Y005101D01*
X006545Y004928D01*
X006632Y004841D01*
X006805Y004841D01*
X006892Y004928D01*
X006892Y005014D01*
X006718Y005275D02*
X006545Y005101D01*
X006376Y005101D02*
X006376Y004928D01*
X006289Y004841D01*
X006116Y004841D01*
X006029Y004928D01*
X006029Y005101D02*
X006203Y005188D01*
X006289Y005188D01*
X006376Y005101D01*
X006376Y005361D02*
X006029Y005361D01*
X006029Y005101D01*
X006388Y004611D02*
X006388Y004381D01*
X006542Y004458D01*
X006619Y004458D01*
X006695Y004381D01*
X006695Y004228D01*
X006619Y004151D01*
X006465Y004151D01*
X006388Y004228D01*
X006388Y004611D02*
X006695Y004611D01*
X006849Y004535D02*
X006925Y004611D01*
X007079Y004611D01*
X007156Y004535D01*
X006849Y004228D01*
X006925Y004151D01*
X007079Y004151D01*
X007156Y004228D01*
X007156Y004535D01*
X007309Y004458D02*
X007386Y004458D01*
X007462Y004381D01*
X007309Y004458D02*
X007309Y004151D01*
X006849Y004228D02*
X006849Y004535D01*
X006718Y005275D02*
X006892Y005361D01*
X008076Y004611D02*
X008153Y004611D01*
X008153Y004151D01*
X008076Y004151D02*
X008230Y004151D01*
X008383Y004228D02*
X008383Y004304D01*
X008460Y004381D01*
X008613Y004381D01*
X008690Y004304D01*
X008690Y004228D01*
X008613Y004151D01*
X008460Y004151D01*
X008383Y004228D01*
X008460Y004381D02*
X008383Y004458D01*
X008383Y004535D01*
X008460Y004611D01*
X008613Y004611D01*
X008690Y004535D01*
X008690Y004458D01*
X008613Y004381D01*
X008844Y004535D02*
X008844Y004611D01*
X008920Y004611D01*
X008920Y004535D01*
X008844Y004535D01*
X008779Y004841D02*
X009213Y005361D01*
X008866Y005361D02*
X008866Y005275D01*
X008779Y005275D01*
X008779Y005361D01*
X008866Y005361D01*
X008611Y005275D02*
X008611Y005188D01*
X008524Y005101D01*
X008350Y005101D01*
X008264Y005188D01*
X008264Y005275D01*
X008350Y005361D01*
X008524Y005361D01*
X008611Y005275D01*
X008524Y005101D02*
X008611Y005014D01*
X008611Y004928D01*
X008524Y004841D01*
X008350Y004841D01*
X008264Y004928D01*
X008264Y005014D01*
X008350Y005101D01*
X009126Y004928D02*
X009126Y004841D01*
X009213Y004841D01*
X009213Y004928D01*
X009126Y004928D01*
X009227Y004611D02*
X008844Y004151D01*
X009150Y004151D02*
X009227Y004151D01*
X009227Y004228D01*
X009150Y004228D01*
X009150Y004151D01*
X013123Y001005D02*
X013123Y000545D01*
X013430Y000545D02*
X013430Y001005D01*
X013276Y000852D01*
X013123Y001005D01*
X013583Y000775D02*
X013583Y000621D01*
X013660Y000545D01*
X013814Y000545D01*
X013890Y000621D01*
X013890Y000775D01*
X013814Y000852D01*
X013660Y000852D01*
X013583Y000775D01*
X014044Y000852D02*
X014044Y000621D01*
X014120Y000545D01*
X014351Y000545D01*
X014351Y000852D01*
X014504Y000852D02*
X014734Y000852D01*
X014811Y000775D01*
X014811Y000545D01*
X014504Y000545D02*
X014504Y000852D01*
X014964Y000852D02*
X015118Y000852D01*
X015041Y000928D02*
X015041Y000621D01*
X015118Y000545D01*
X015271Y000621D02*
X015348Y000545D01*
X015501Y000545D01*
X015578Y000621D01*
X015578Y000698D01*
X015501Y000775D01*
X015425Y000775D01*
X015501Y000775D02*
X015578Y000852D01*
X015578Y000928D01*
X015501Y001005D01*
X015348Y001005D01*
X015271Y000928D01*
X015732Y000621D02*
X015732Y000545D01*
X015808Y000545D01*
X015808Y000621D01*
X015732Y000621D01*
X015962Y000545D02*
X016269Y000852D01*
X016269Y000928D01*
X016192Y001005D01*
X016039Y001005D01*
X015962Y000928D01*
X015962Y000545D02*
X016269Y000545D01*
X009171Y008931D02*
X009171Y010931D01*
X007171Y010931D01*
X007171Y008931D01*
X009171Y008931D01*
X009171Y009011D02*
X007171Y009011D01*
X007171Y009091D02*
X009171Y009091D01*
X009171Y009171D02*
X007171Y009171D01*
X007171Y009251D02*
X009171Y009251D01*
X009171Y009331D02*
X007171Y009331D01*
X007251Y008931D02*
X007251Y010931D01*
X007331Y010931D02*
X007331Y008931D01*
X007411Y008931D02*
X007411Y010931D01*
X007491Y010931D02*
X007491Y008931D01*
X007571Y008931D02*
X007571Y010931D01*
X007171Y010851D02*
X009171Y010851D01*
X009171Y010771D02*
X007171Y010771D01*
X007171Y010691D02*
X009171Y010691D01*
X009171Y010611D02*
X007171Y010611D01*
X007171Y010531D02*
X009171Y010531D01*
X009091Y010931D02*
X009091Y008931D01*
X009011Y008931D02*
X009011Y010931D01*
X008931Y010931D02*
X008931Y008931D01*
X008851Y008931D02*
X008851Y010931D01*
X008771Y010931D02*
X008771Y008931D01*
X002722Y001702D02*
X002722Y001061D01*
X002934Y018549D02*
X002934Y019009D01*
X003087Y018856D01*
X003241Y019009D01*
X003241Y018549D01*
X003394Y018625D02*
X003471Y018549D01*
X003624Y018549D01*
X003701Y018625D01*
X003701Y018779D01*
X003624Y018856D01*
X003471Y018856D01*
X003394Y018779D01*
X003394Y018625D01*
X003854Y018625D02*
X003931Y018549D01*
X004161Y018549D01*
X004161Y018856D01*
X004315Y018856D02*
X004545Y018856D01*
X004622Y018779D01*
X004622Y018549D01*
X004852Y018625D02*
X004929Y018549D01*
X004852Y018625D02*
X004852Y018932D01*
X004775Y018856D02*
X004929Y018856D01*
X005082Y018932D02*
X005159Y019009D01*
X005312Y019009D01*
X005389Y018932D01*
X005389Y018856D01*
X005082Y018549D01*
X005389Y018549D01*
X005542Y018549D02*
X005542Y018625D01*
X005619Y018625D01*
X005619Y018549D01*
X005542Y018549D01*
X005773Y018625D02*
X005773Y018702D01*
X005849Y018779D01*
X006003Y018779D01*
X006079Y018702D01*
X006079Y018625D01*
X006003Y018549D01*
X005849Y018549D01*
X005773Y018625D01*
X005849Y018779D02*
X005773Y018856D01*
X005773Y018932D01*
X005849Y019009D01*
X006003Y019009D01*
X006079Y018932D01*
X006079Y018856D01*
X006003Y018779D01*
X004315Y018856D02*
X004315Y018549D01*
X003854Y018625D02*
X003854Y018856D01*
X013367Y019009D02*
X013367Y018549D01*
X013674Y018549D02*
X013674Y019009D01*
X013520Y018856D01*
X013367Y019009D01*
X013827Y018779D02*
X013827Y018625D01*
X013904Y018549D01*
X014057Y018549D01*
X014134Y018625D01*
X014134Y018779D01*
X014057Y018856D01*
X013904Y018856D01*
X013827Y018779D01*
X014288Y018856D02*
X014288Y018625D01*
X014364Y018549D01*
X014594Y018549D01*
X014594Y018856D01*
X014748Y018856D02*
X014978Y018856D01*
X015055Y018779D01*
X015055Y018549D01*
X015285Y018625D02*
X015362Y018549D01*
X015285Y018625D02*
X015285Y018932D01*
X015208Y018856D02*
X015362Y018856D01*
X015515Y018932D02*
X015592Y019009D01*
X015745Y019009D01*
X015822Y018932D01*
X015822Y018856D01*
X015745Y018779D01*
X015822Y018702D01*
X015822Y018625D01*
X015745Y018549D01*
X015592Y018549D01*
X015515Y018625D01*
X015669Y018779D02*
X015745Y018779D01*
X015976Y018625D02*
X016052Y018625D01*
X016052Y018549D01*
X015976Y018549D01*
X015976Y018625D01*
X016206Y018625D02*
X016282Y018549D01*
X016436Y018549D01*
X016513Y018625D01*
X016513Y018932D01*
X016206Y018625D01*
X016206Y018932D01*
X016282Y019009D01*
X016436Y019009D01*
X016513Y018932D01*
X014748Y018856D02*
X014748Y018549D01*
D12*
X006727Y017558D02*
X006663Y017621D01*
X006537Y017621D01*
X006473Y017558D01*
X006727Y017558D02*
X006727Y017495D01*
X006473Y017241D01*
X006727Y017241D01*
X006600Y016921D02*
X006600Y016541D01*
X006473Y016541D02*
X006727Y016541D01*
X006473Y016795D02*
X006600Y016921D01*
X006353Y016604D02*
X006353Y016541D01*
X006289Y016541D01*
X006289Y016604D01*
X006353Y016604D01*
X006174Y016541D02*
X005921Y016541D01*
X006048Y016541D02*
X006048Y016921D01*
X005921Y016795D01*
X005921Y017241D02*
X006174Y017241D01*
X006289Y017241D02*
X006353Y017241D01*
X006353Y017304D01*
X006289Y017304D01*
X006289Y017241D01*
X006048Y017241D02*
X006048Y017621D01*
X005921Y017495D01*
X004901Y016863D02*
X004901Y016736D01*
X004837Y016673D01*
X004584Y016926D01*
X004837Y016926D01*
X004901Y016863D01*
X004837Y016673D02*
X004584Y016673D01*
X004521Y016736D01*
X004521Y016863D01*
X004584Y016926D01*
X004837Y016552D02*
X004901Y016552D01*
X004901Y016489D01*
X004837Y016489D01*
X004837Y016552D01*
X004901Y016374D02*
X004901Y016120D01*
X004647Y016374D01*
X004584Y016374D01*
X004521Y016310D01*
X004521Y016184D01*
X004584Y016120D01*
X004674Y015526D02*
X004611Y015463D01*
X004611Y015273D01*
X004737Y015273D01*
X004801Y015336D01*
X004801Y015463D01*
X004737Y015526D01*
X004674Y015526D01*
X004484Y015399D02*
X004611Y015273D01*
X004737Y015152D02*
X004801Y015152D01*
X004801Y015089D01*
X004737Y015089D01*
X004737Y015152D01*
X004801Y014974D02*
X004801Y014720D01*
X004801Y014847D02*
X004421Y014847D01*
X004547Y014720D01*
X004611Y014326D02*
X004737Y014326D01*
X004801Y014263D01*
X004801Y014136D01*
X004737Y014073D01*
X004737Y013952D02*
X004801Y013952D01*
X004801Y013889D01*
X004737Y013889D01*
X004737Y013952D01*
X004611Y014073D02*
X004547Y014199D01*
X004547Y014263D01*
X004611Y014326D01*
X004421Y014326D02*
X004421Y014073D01*
X004611Y014073D01*
X004801Y013774D02*
X004801Y013520D01*
X004801Y013647D02*
X004421Y013647D01*
X004547Y013520D01*
X004511Y013126D02*
X004511Y012873D01*
X004321Y013063D01*
X004701Y013063D01*
X004701Y012752D02*
X004637Y012752D01*
X004637Y012689D01*
X004701Y012689D01*
X004701Y012752D01*
X004701Y012574D02*
X004701Y012320D01*
X004701Y012447D02*
X004321Y012447D01*
X004447Y012320D01*
X004447Y012026D02*
X004511Y011963D01*
X004574Y012026D01*
X004637Y012026D01*
X004701Y011963D01*
X004701Y011836D01*
X004637Y011773D01*
X004637Y011652D02*
X004701Y011652D01*
X004701Y011589D01*
X004637Y011589D01*
X004637Y011652D01*
X004701Y011474D02*
X004701Y011220D01*
X004701Y011347D02*
X004321Y011347D01*
X004447Y011220D01*
X004471Y010931D02*
X004471Y008931D01*
X004511Y008931D02*
X004511Y010931D01*
X004551Y010931D02*
X004551Y008931D01*
X004591Y008931D02*
X004591Y010931D01*
X004631Y010931D02*
X004631Y008931D01*
X004671Y008931D02*
X004671Y010931D01*
X004711Y010931D02*
X004711Y008931D01*
X004751Y008931D02*
X004751Y010931D01*
X004791Y010931D02*
X004791Y008931D01*
X004831Y008931D02*
X004831Y010931D01*
X004871Y010931D02*
X004871Y008931D01*
X004911Y008931D02*
X004911Y010931D01*
X002911Y010931D01*
X002911Y008931D01*
X004911Y008931D01*
X004911Y008971D02*
X002911Y008971D01*
X002911Y009011D02*
X004911Y009011D01*
X004911Y009051D02*
X002911Y009051D01*
X002911Y009091D02*
X004911Y009091D01*
X004911Y009131D02*
X002911Y009131D01*
X002911Y009171D02*
X004911Y009171D01*
X004911Y009211D02*
X002911Y009211D01*
X002911Y009251D02*
X004911Y009251D01*
X004911Y009291D02*
X002911Y009291D01*
X002911Y009331D02*
X004911Y009331D01*
X004911Y009371D02*
X002911Y009371D01*
X002951Y008931D02*
X002951Y010931D01*
X002991Y010931D02*
X002991Y008931D01*
X003031Y008931D02*
X003031Y010931D01*
X003071Y010931D02*
X003071Y008931D01*
X003111Y008931D02*
X003111Y010931D01*
X003151Y010931D02*
X003151Y008931D01*
X003191Y008931D02*
X003191Y010931D01*
X003231Y010931D02*
X003231Y008931D01*
X003271Y008931D02*
X003271Y010931D01*
X003311Y010931D02*
X003311Y008931D01*
X003351Y008931D02*
X003351Y010931D01*
X002911Y010891D02*
X004911Y010891D01*
X004911Y010851D02*
X002911Y010851D01*
X002911Y010811D02*
X004911Y010811D01*
X004911Y010771D02*
X002911Y010771D01*
X002911Y010731D02*
X004911Y010731D01*
X004911Y010691D02*
X002911Y010691D01*
X002911Y010651D02*
X004911Y010651D01*
X004911Y010611D02*
X002911Y010611D01*
X002911Y010571D02*
X004911Y010571D01*
X004911Y010531D02*
X002911Y010531D01*
X002911Y010491D02*
X004911Y010491D01*
X005721Y011304D02*
X005974Y011558D01*
X005974Y011304D01*
X005911Y011241D01*
X005784Y011241D01*
X005721Y011304D01*
X005721Y011558D01*
X005784Y011621D01*
X005911Y011621D01*
X005974Y011558D01*
X005911Y011841D02*
X005784Y011841D01*
X005721Y011904D01*
X005974Y012158D01*
X005974Y011904D01*
X005911Y011841D01*
X006089Y011841D02*
X006153Y011841D01*
X006153Y011904D01*
X006089Y011904D01*
X006089Y011841D01*
X006273Y012031D02*
X006527Y012031D01*
X006463Y011841D02*
X006463Y012221D01*
X006273Y012031D01*
X005974Y012158D02*
X005911Y012221D01*
X005784Y012221D01*
X005721Y012158D01*
X005721Y011904D01*
X005784Y012441D02*
X005721Y012504D01*
X005974Y012758D01*
X005974Y012504D01*
X005911Y012441D01*
X005784Y012441D01*
X005721Y012504D02*
X005721Y012758D01*
X005784Y012821D01*
X005911Y012821D01*
X005974Y012758D01*
X006089Y012504D02*
X006153Y012504D01*
X006153Y012441D01*
X006089Y012441D01*
X006089Y012504D01*
X006273Y012504D02*
X006337Y012441D01*
X006463Y012441D01*
X006527Y012504D01*
X006527Y012631D01*
X006463Y012695D01*
X006400Y012695D01*
X006273Y012631D01*
X006273Y012821D01*
X006527Y012821D01*
X006463Y013041D02*
X006337Y013041D01*
X006273Y013104D01*
X006273Y013231D01*
X006463Y013231D01*
X006527Y013168D01*
X006527Y013104D01*
X006463Y013041D01*
X006273Y013231D02*
X006400Y013358D01*
X006527Y013421D01*
X006273Y013641D02*
X006273Y013704D01*
X006527Y013958D01*
X006527Y014021D01*
X006273Y014021D01*
X006153Y013704D02*
X006153Y013641D01*
X006089Y013641D01*
X006089Y013704D01*
X006153Y013704D01*
X005974Y013704D02*
X005911Y013641D01*
X005784Y013641D01*
X005721Y013704D01*
X005974Y013958D01*
X005974Y013704D01*
X005721Y013704D02*
X005721Y013958D01*
X005784Y014021D01*
X005911Y014021D01*
X005974Y013958D01*
X006011Y014341D02*
X005884Y014341D01*
X005821Y014404D01*
X006074Y014658D01*
X006074Y014404D01*
X006011Y014341D01*
X006189Y014341D02*
X006253Y014341D01*
X006253Y014404D01*
X006189Y014404D01*
X006189Y014341D01*
X006373Y014404D02*
X006373Y014468D01*
X006437Y014531D01*
X006563Y014531D01*
X006627Y014468D01*
X006627Y014404D01*
X006563Y014341D01*
X006437Y014341D01*
X006373Y014404D01*
X006437Y014531D02*
X006373Y014595D01*
X006373Y014658D01*
X006437Y014721D01*
X006563Y014721D01*
X006627Y014658D01*
X006627Y014595D01*
X006563Y014531D01*
X006074Y014658D02*
X006011Y014721D01*
X005884Y014721D01*
X005821Y014658D01*
X005821Y014404D01*
X005884Y015041D02*
X005821Y015104D01*
X006074Y015358D01*
X006074Y015104D01*
X006011Y015041D01*
X005884Y015041D01*
X005821Y015104D02*
X005821Y015358D01*
X005884Y015421D01*
X006011Y015421D01*
X006074Y015358D01*
X006189Y015104D02*
X006253Y015104D01*
X006253Y015041D01*
X006189Y015041D01*
X006189Y015104D01*
X006373Y015104D02*
X006437Y015041D01*
X006563Y015041D01*
X006627Y015104D01*
X006627Y015358D01*
X006563Y015421D01*
X006437Y015421D01*
X006373Y015358D01*
X006373Y015295D01*
X006437Y015231D01*
X006627Y015231D01*
X006563Y015741D02*
X006437Y015741D01*
X006373Y015804D01*
X006627Y016058D01*
X006627Y015804D01*
X006563Y015741D01*
X006373Y015804D02*
X006373Y016058D01*
X006437Y016121D01*
X006563Y016121D01*
X006627Y016058D01*
X006253Y015804D02*
X006189Y015804D01*
X006189Y015741D01*
X006253Y015741D01*
X006253Y015804D01*
X006074Y015741D02*
X005821Y015741D01*
X005948Y015741D02*
X005948Y016121D01*
X005821Y015995D01*
X004484Y015399D02*
X004421Y015526D01*
X003101Y015526D02*
X003101Y015273D01*
X002847Y015526D01*
X002784Y015526D01*
X002721Y015463D01*
X002721Y015336D01*
X002784Y015273D01*
X003037Y015152D02*
X003101Y015152D01*
X003101Y015089D01*
X003037Y015089D01*
X003037Y015152D01*
X003037Y014974D02*
X003101Y014910D01*
X003101Y014784D01*
X003037Y014720D01*
X002911Y014847D02*
X002911Y014910D01*
X002974Y014974D01*
X003037Y014974D01*
X002911Y014910D02*
X002847Y014974D01*
X002784Y014974D01*
X002721Y014910D01*
X002721Y014784D01*
X002784Y014720D01*
X002747Y013826D02*
X002684Y013826D01*
X002621Y013763D01*
X002621Y013636D01*
X002684Y013573D01*
X002747Y013573D01*
X002811Y013636D01*
X002811Y013763D01*
X002874Y013826D01*
X002937Y013826D01*
X003001Y013763D01*
X003001Y013636D01*
X002937Y013573D01*
X002874Y013573D01*
X002811Y013636D01*
X002811Y013763D02*
X002747Y013826D01*
X002937Y013452D02*
X003001Y013452D01*
X003001Y013389D01*
X002937Y013389D01*
X002937Y013452D01*
X003001Y013274D02*
X003001Y013020D01*
X002747Y013274D01*
X002684Y013274D01*
X002621Y013210D01*
X002621Y013084D01*
X002684Y013020D01*
X002647Y012226D02*
X002584Y012226D01*
X002521Y012163D01*
X002521Y012036D01*
X002584Y011973D01*
X002647Y012226D02*
X002901Y011973D01*
X002901Y012226D01*
X002901Y011852D02*
X002901Y011789D01*
X002837Y011789D01*
X002837Y011852D01*
X002901Y011852D01*
X002901Y011674D02*
X002901Y011420D01*
X002647Y011674D01*
X002584Y011674D01*
X002521Y011610D01*
X002521Y011484D01*
X002584Y011420D01*
X004321Y011836D02*
X004321Y011963D01*
X004384Y012026D01*
X004447Y012026D01*
X004511Y011963D02*
X004511Y011899D01*
X004384Y011773D02*
X004321Y011836D01*
X005721Y013104D02*
X005974Y013358D01*
X005974Y013104D01*
X005911Y013041D01*
X005784Y013041D01*
X005721Y013104D01*
X005721Y013358D01*
X005784Y013421D01*
X005911Y013421D01*
X005974Y013358D01*
X006089Y013104D02*
X006153Y013104D01*
X006153Y013041D01*
X006089Y013041D01*
X006089Y013104D01*
X006337Y011621D02*
X006463Y011621D01*
X006527Y011558D01*
X006527Y011495D01*
X006463Y011431D01*
X006527Y011368D01*
X006527Y011304D01*
X006463Y011241D01*
X006337Y011241D01*
X006273Y011304D01*
X006153Y011304D02*
X006153Y011241D01*
X006089Y011241D01*
X006089Y011304D01*
X006153Y011304D01*
X006400Y011431D02*
X006463Y011431D01*
X006337Y011621D02*
X006273Y011558D01*
X002039Y006085D02*
X002039Y006021D01*
X002039Y005895D02*
X002039Y005641D01*
X001976Y005641D02*
X002103Y005641D01*
X002221Y005641D02*
X002348Y005641D01*
X002285Y005641D02*
X002285Y006021D01*
X002221Y006021D01*
X002039Y005895D02*
X001976Y005895D01*
X001861Y005831D02*
X001861Y005641D01*
X001734Y005641D02*
X001734Y005831D01*
X001798Y005895D01*
X001861Y005831D01*
X001734Y005831D02*
X001671Y005895D01*
X001607Y005895D01*
X001607Y005641D01*
X001493Y005704D02*
X001429Y005641D01*
X001303Y005641D01*
X001239Y005704D01*
X001493Y005958D01*
X001493Y005704D01*
X001239Y005704D02*
X001239Y005958D01*
X001303Y006021D01*
X001429Y006021D01*
X001493Y005958D01*
X001124Y005831D02*
X000871Y005831D01*
X001061Y006021D01*
X001061Y005641D01*
X001191Y005371D02*
X000871Y005371D01*
X000871Y005131D01*
X001031Y005211D01*
X001111Y005211D01*
X001191Y005131D01*
X001191Y004971D01*
X001111Y004891D01*
X000951Y004891D01*
X000871Y004971D01*
X000871Y004681D02*
X000871Y004411D01*
X001051Y004501D01*
X001141Y004501D01*
X001231Y004411D01*
X001231Y004231D01*
X001141Y004141D01*
X000961Y004141D01*
X000871Y004231D01*
X000871Y004681D02*
X001231Y004681D01*
X001386Y004411D02*
X001657Y004411D01*
X001747Y004321D01*
X001747Y004231D01*
X001657Y004141D01*
X001477Y004141D01*
X001386Y004231D01*
X001386Y004411D01*
X001567Y004591D01*
X001747Y004681D01*
X001902Y004501D02*
X001992Y004501D01*
X002082Y004411D01*
X002172Y004501D01*
X002262Y004411D01*
X002262Y004141D01*
X002418Y004141D02*
X002598Y004141D01*
X002508Y004141D02*
X002508Y004501D01*
X002418Y004501D01*
X002508Y004681D02*
X002508Y004772D01*
X002559Y004891D02*
X002719Y004891D01*
X002639Y004891D02*
X002639Y005371D01*
X002559Y005371D01*
X002657Y005641D02*
X002657Y006021D01*
X002467Y005831D01*
X002720Y005831D01*
X002835Y005958D02*
X002835Y006021D01*
X002899Y006021D01*
X002899Y005958D01*
X002835Y005958D01*
X003089Y005704D02*
X003152Y005704D01*
X003152Y005641D01*
X003089Y005641D01*
X003089Y005704D01*
X002835Y005641D02*
X003152Y006021D01*
X003106Y005371D02*
X002866Y005131D01*
X003186Y005131D01*
X003326Y005291D02*
X003326Y005371D01*
X003406Y005371D01*
X003406Y005291D01*
X003326Y005291D01*
X003106Y005371D02*
X003106Y004891D01*
X003326Y004891D02*
X003726Y005371D01*
X003726Y004971D02*
X003646Y004971D01*
X003646Y004891D01*
X003726Y004891D01*
X003726Y004971D01*
X003711Y004681D02*
X003621Y004681D01*
X003621Y004591D01*
X003711Y004591D01*
X003711Y004681D01*
X004071Y004681D02*
X003621Y004141D01*
X003375Y004141D02*
X003375Y004681D01*
X003105Y004411D01*
X003466Y004411D01*
X002942Y004141D02*
X002761Y004141D01*
X002852Y004141D02*
X002852Y004681D01*
X002761Y004681D01*
X002412Y004891D02*
X002252Y004891D01*
X002332Y004891D02*
X002332Y005211D01*
X002252Y005211D01*
X002112Y005131D02*
X002112Y004891D01*
X001952Y004891D02*
X001952Y005131D01*
X002032Y005211D01*
X002112Y005131D01*
X001952Y005131D02*
X001872Y005211D01*
X001792Y005211D01*
X001792Y004891D01*
X001651Y004971D02*
X001571Y004891D01*
X001411Y004891D01*
X001331Y004971D01*
X001651Y005291D01*
X001651Y004971D01*
X001331Y004971D02*
X001331Y005291D01*
X001411Y005371D01*
X001571Y005371D01*
X001651Y005291D01*
X002332Y005371D02*
X002332Y005451D01*
X001902Y004501D02*
X001902Y004141D01*
X002082Y004141D02*
X002082Y004411D01*
X003981Y004231D02*
X004071Y004231D01*
X004071Y004141D01*
X003981Y004141D01*
X003981Y004231D01*
X007575Y002825D02*
X007622Y002871D01*
X007715Y002871D01*
X007762Y002825D01*
X007762Y002778D01*
X007715Y002731D01*
X007762Y002684D01*
X007762Y002638D01*
X007715Y002591D01*
X007622Y002591D01*
X007575Y002638D01*
X007669Y002731D02*
X007715Y002731D01*
X007852Y002638D02*
X007852Y002825D01*
X007898Y002871D01*
X007992Y002871D01*
X008038Y002825D01*
X007852Y002638D01*
X007898Y002591D01*
X007992Y002591D01*
X008038Y002638D01*
X008038Y002825D01*
X008128Y002778D02*
X008174Y002778D01*
X008221Y002731D01*
X008268Y002778D01*
X008315Y002731D01*
X008315Y002591D01*
X008404Y002591D02*
X008497Y002591D01*
X008451Y002591D02*
X008451Y002778D01*
X008404Y002778D01*
X008451Y002871D02*
X008451Y002918D01*
X008588Y002871D02*
X008635Y002871D01*
X008635Y002591D01*
X008588Y002591D02*
X008682Y002591D01*
X008772Y002638D02*
X008772Y002684D01*
X008819Y002731D01*
X008912Y002731D01*
X008959Y002684D01*
X008959Y002638D01*
X008912Y002591D01*
X008819Y002591D01*
X008772Y002638D01*
X008819Y002731D02*
X008772Y002778D01*
X008772Y002825D01*
X008819Y002871D01*
X008912Y002871D01*
X008959Y002825D01*
X008959Y002778D01*
X008912Y002731D01*
X009049Y002825D02*
X009049Y002871D01*
X009095Y002871D01*
X009095Y002825D01*
X009049Y002825D01*
X009049Y002591D02*
X009282Y002871D01*
X009282Y002638D02*
X009282Y002591D01*
X009235Y002591D01*
X009235Y002638D01*
X009282Y002638D01*
X009296Y002371D02*
X009113Y002151D01*
X009039Y002188D02*
X009002Y002151D01*
X008929Y002151D01*
X008892Y002188D01*
X008892Y002224D01*
X008929Y002261D01*
X009002Y002261D01*
X009039Y002224D01*
X009039Y002188D01*
X009002Y002261D02*
X009039Y002298D01*
X009039Y002334D01*
X009002Y002371D01*
X008929Y002371D01*
X008892Y002334D01*
X008892Y002298D01*
X008929Y002261D01*
X008818Y002151D02*
X008745Y002151D01*
X008781Y002151D02*
X008781Y002371D01*
X008745Y002371D01*
X008634Y002371D02*
X008634Y002408D01*
X008634Y002298D02*
X008634Y002151D01*
X008597Y002151D02*
X008671Y002151D01*
X008523Y002151D02*
X008523Y002261D01*
X008486Y002298D01*
X008450Y002261D01*
X008450Y002151D01*
X008376Y002151D02*
X008376Y002298D01*
X008413Y002298D01*
X008450Y002261D01*
X008302Y002261D02*
X008155Y002261D01*
X008266Y002371D01*
X008266Y002151D01*
X008081Y002151D02*
X007934Y002151D01*
X008081Y002298D01*
X008081Y002334D01*
X008045Y002371D01*
X007971Y002371D01*
X007934Y002334D01*
X008128Y002591D02*
X008128Y002778D01*
X008221Y002731D02*
X008221Y002591D01*
X008597Y002298D02*
X008634Y002298D01*
X008695Y001905D02*
X008695Y001871D01*
X008695Y001804D02*
X008695Y001671D01*
X008662Y001671D02*
X008729Y001671D01*
X008797Y001671D02*
X008864Y001671D01*
X008830Y001671D02*
X008830Y001871D01*
X008797Y001871D01*
X008695Y001804D02*
X008662Y001804D01*
X008593Y001771D02*
X008593Y001671D01*
X008526Y001671D02*
X008526Y001771D01*
X008559Y001804D01*
X008593Y001771D01*
X008526Y001771D02*
X008493Y001804D01*
X008459Y001804D01*
X008459Y001671D01*
X008390Y001671D02*
X008257Y001671D01*
X008390Y001804D01*
X008390Y001838D01*
X008357Y001871D01*
X008290Y001871D01*
X008257Y001838D01*
X008188Y001838D02*
X008154Y001871D01*
X008088Y001871D01*
X008054Y001838D01*
X008188Y001838D02*
X008188Y001804D01*
X008054Y001671D01*
X008188Y001671D01*
X008932Y001704D02*
X008932Y001738D01*
X008965Y001771D01*
X009032Y001771D01*
X009065Y001738D01*
X009065Y001704D01*
X009032Y001671D01*
X008965Y001671D01*
X008932Y001704D01*
X008965Y001771D02*
X008932Y001804D01*
X008932Y001838D01*
X008965Y001871D01*
X009032Y001871D01*
X009065Y001838D01*
X009065Y001804D01*
X009032Y001771D01*
X009134Y001838D02*
X009134Y001871D01*
X009168Y001871D01*
X009168Y001838D01*
X009134Y001838D01*
X009134Y001671D02*
X009301Y001871D01*
X009301Y001704D02*
X009301Y001671D01*
X009268Y001671D01*
X009268Y001704D01*
X009301Y001704D01*
X009296Y002151D02*
X009260Y002151D01*
X009260Y002188D01*
X009296Y002188D01*
X009296Y002151D01*
X009150Y002334D02*
X009150Y002371D01*
X009113Y002371D01*
X009113Y002334D01*
X009150Y002334D01*
D13*
X010325Y002901D02*
X010325Y003492D01*
X011506Y003492D01*
X011506Y002901D01*
X010325Y002901D01*
X010841Y003021D02*
X010841Y003371D01*
X010991Y003371D02*
X010841Y003196D01*
X010991Y003021D01*
X010991Y003371D01*
X011638Y004162D02*
X010238Y004162D01*
X010238Y004762D01*
X011638Y004762D01*
X011638Y004162D01*
X012435Y003666D02*
X012435Y005399D01*
X016098Y005399D01*
X016098Y004898D01*
X016098Y003666D01*
X012435Y003666D01*
X012916Y002735D02*
X012916Y001492D01*
X012916Y001514D01*
X012916Y001492D02*
X012916Y001396D01*
X016079Y001396D01*
X016079Y002567D01*
X016079Y002735D01*
X012916Y002735D01*
X014172Y002241D02*
X014172Y001891D01*
X014322Y001891D02*
X014172Y002066D01*
X014322Y002241D01*
X014322Y001891D01*
X016079Y002567D02*
X016079Y002614D01*
X016694Y003334D02*
X018961Y003334D01*
X018961Y004277D01*
X018961Y004215D01*
X018961Y004277D02*
X018961Y004408D01*
X016694Y004408D01*
X016694Y004277D01*
X016694Y003334D01*
X016694Y004265D02*
X016694Y004277D01*
X016098Y004898D02*
X016098Y005242D01*
X016758Y005249D02*
X018897Y005249D01*
X018897Y006389D01*
X018897Y006366D01*
X018897Y006389D02*
X018897Y006430D01*
X016758Y006430D01*
X016758Y005389D01*
X016758Y005249D01*
X016758Y005341D02*
X016758Y005389D01*
X017752Y005665D02*
X017902Y005840D01*
X017752Y006015D01*
X017752Y005665D01*
X017902Y005665D02*
X017902Y006015D01*
X018907Y007178D02*
X016747Y007178D01*
X016747Y007993D01*
X016747Y008044D01*
X018907Y008044D01*
X018907Y007993D01*
X018907Y007178D01*
X018907Y007980D02*
X018907Y007993D01*
X019029Y008792D02*
X019029Y009532D01*
X019029Y009540D02*
X019029Y009580D01*
X017019Y009580D01*
X017019Y009557D01*
X017019Y008792D01*
X019029Y008792D01*
X018099Y009011D02*
X018099Y009361D01*
X017949Y009361D02*
X018099Y009186D01*
X017949Y009011D01*
X017949Y009361D01*
X017019Y009515D02*
X017019Y009557D01*
X017079Y010367D02*
X017079Y011155D01*
X018969Y011155D01*
X018969Y010367D01*
X017079Y010367D01*
X017512Y011981D02*
X018930Y011981D01*
X018930Y012690D01*
X017512Y012690D01*
X017512Y011981D01*
X017690Y013537D02*
X017690Y014088D01*
X018949Y014088D01*
X018949Y013537D01*
X017690Y013537D01*
X017918Y014743D02*
X017918Y015243D01*
X018918Y015243D01*
X018918Y014743D01*
X017918Y014743D01*
X015964Y008188D02*
X015825Y008188D01*
X015177Y008188D01*
X015177Y006299D01*
X015725Y006299D01*
X015964Y006299D01*
X015964Y008188D01*
X015841Y008188D02*
X015825Y008188D01*
X015807Y007419D02*
X015571Y007419D01*
X015807Y007183D01*
X015334Y007183D01*
X015571Y007419D01*
X015334Y007419D01*
X014387Y007758D02*
X014387Y006342D01*
X014298Y006342D01*
X013757Y006342D01*
X013757Y007758D01*
X014347Y007758D01*
X014348Y007758D02*
X014387Y007758D01*
X014230Y007129D02*
X014072Y007129D01*
X014230Y006971D01*
X013915Y006971D01*
X014072Y007129D01*
X013915Y007129D01*
X014298Y006342D02*
X014347Y006342D01*
X013024Y006356D02*
X012524Y006356D01*
X012524Y007356D01*
X013024Y007356D01*
X013024Y006356D01*
X012931Y006777D02*
X012616Y006777D01*
X012774Y006935D01*
X012931Y006777D01*
X012931Y006935D02*
X012774Y006935D01*
X012616Y006935D01*
X011489Y006056D02*
X011489Y005977D01*
X011489Y006056D02*
X011292Y006056D01*
X011489Y005505D02*
X011489Y005426D01*
X011292Y005426D01*
X010583Y005426D02*
X010386Y005426D01*
X010386Y005505D01*
X010386Y005977D02*
X010386Y006056D01*
X010583Y006056D01*
X013692Y004708D02*
X013692Y004358D01*
X013842Y004358D02*
X013692Y004533D01*
X013842Y004708D01*
X013842Y004358D01*
X015725Y006299D02*
X015791Y006299D01*
X016747Y007980D02*
X016747Y007993D01*
X017752Y007786D02*
X017752Y007436D01*
X017902Y007611D01*
X017752Y007786D01*
X017902Y007786D02*
X017902Y007436D01*
X017902Y004046D02*
X017902Y003696D01*
X017752Y003696D02*
X017902Y003871D01*
X017752Y004046D01*
X017752Y003696D01*
X011489Y001627D02*
X011489Y000997D01*
X011449Y000997D01*
X011174Y000997D02*
X011095Y000997D01*
X010780Y000997D02*
X010701Y000997D01*
X010426Y000997D02*
X010386Y000997D01*
X010386Y001627D01*
X010426Y001627D01*
X010701Y001627D02*
X010780Y001627D01*
X011095Y001627D02*
X011174Y001627D01*
X011449Y001627D02*
X011489Y001627D01*
X008288Y009676D02*
X008288Y010287D01*
X007983Y009981D01*
X008390Y009981D01*
X006245Y010053D02*
X006143Y009951D01*
X006245Y009850D01*
X006245Y009748D01*
X006143Y009646D01*
X005940Y009646D01*
X005838Y009748D01*
X006042Y009951D02*
X006143Y009951D01*
X006245Y010053D02*
X006245Y010155D01*
X006143Y010257D01*
X005940Y010257D01*
X005838Y010155D01*
X004150Y010160D02*
X004150Y010058D01*
X003743Y009651D01*
X004150Y009651D01*
X004150Y010160D02*
X004048Y010262D01*
X003845Y010262D01*
X003743Y010160D01*
X002025Y009686D02*
X001618Y009686D01*
X001822Y009686D02*
X001822Y010297D01*
X001618Y010093D01*
D14*
X000811Y010541D02*
X002811Y010541D01*
X002811Y010571D02*
X000811Y010571D01*
X000811Y010601D02*
X002811Y010601D01*
X002811Y010631D02*
X000811Y010631D01*
X000811Y010661D02*
X002811Y010661D01*
X002811Y010691D02*
X000811Y010691D01*
X000811Y010721D02*
X002811Y010721D01*
X002811Y010751D02*
X000811Y010751D01*
X000811Y010781D02*
X002811Y010781D01*
X002811Y010811D02*
X000811Y010811D01*
X000811Y010841D02*
X002811Y010841D01*
X002811Y010871D02*
X000811Y010871D01*
X000811Y010901D02*
X002811Y010901D01*
X002811Y010931D02*
X000811Y010931D01*
X000811Y008931D01*
X002811Y008931D01*
X002811Y010931D01*
X002781Y010931D02*
X002781Y008931D01*
X002751Y008931D02*
X002751Y010931D01*
X002721Y010931D02*
X002721Y008931D01*
X002691Y008931D02*
X002691Y010931D01*
X002661Y010931D02*
X002661Y008931D01*
X002631Y008931D02*
X002631Y010931D01*
X002601Y010931D02*
X002601Y008931D01*
X002571Y008931D02*
X002571Y010931D01*
X002541Y010931D02*
X002541Y008931D01*
X002511Y008931D02*
X002511Y010931D01*
X002481Y010931D02*
X002481Y008931D01*
X002451Y008931D02*
X002451Y010931D01*
X002421Y010931D02*
X002421Y008931D01*
X002811Y008961D02*
X000811Y008961D01*
X000811Y008991D02*
X002811Y008991D01*
X002811Y009021D02*
X000811Y009021D01*
X000811Y009051D02*
X002811Y009051D01*
X002811Y009081D02*
X000811Y009081D01*
X000811Y009111D02*
X002811Y009111D01*
X002811Y009141D02*
X000811Y009141D01*
X000811Y009171D02*
X002811Y009171D01*
X002811Y009201D02*
X000811Y009201D01*
X000811Y009231D02*
X002811Y009231D01*
X002811Y009261D02*
X000811Y009261D01*
X000811Y009291D02*
X002811Y009291D01*
X002811Y009321D02*
X000811Y009321D01*
X000841Y008931D02*
X000841Y010931D01*
X000871Y010931D02*
X000871Y008931D01*
X000901Y008931D02*
X000901Y010931D01*
X000931Y010931D02*
X000931Y008931D01*
X000961Y008931D02*
X000961Y010931D01*
X000991Y010931D02*
X000991Y008931D01*
X001021Y008931D02*
X001021Y010931D01*
X001051Y010931D02*
X001051Y008931D01*
X001081Y008931D02*
X001081Y010931D01*
X001111Y010931D02*
X001111Y008931D01*
X001141Y008931D02*
X001141Y010931D01*
X001171Y010931D02*
X001171Y008931D01*
X001201Y008931D02*
X001201Y010931D01*
X001333Y008311D02*
X001333Y008286D01*
X001333Y008236D02*
X001333Y008136D01*
X001308Y008136D02*
X001358Y008136D01*
X001406Y008136D02*
X001456Y008136D01*
X001431Y008136D02*
X001431Y008286D01*
X001406Y008286D01*
X001333Y008236D02*
X001308Y008236D01*
X001261Y008211D02*
X001261Y008136D01*
X001211Y008136D02*
X001211Y008211D01*
X001236Y008236D01*
X001261Y008211D01*
X001211Y008211D02*
X001186Y008236D01*
X001161Y008236D01*
X001161Y008136D01*
X001113Y008161D02*
X001113Y008186D01*
X001088Y008211D01*
X001013Y008211D01*
X001013Y008161D01*
X001038Y008136D01*
X001088Y008136D01*
X001113Y008161D01*
X001063Y008261D02*
X001013Y008211D01*
X001063Y008261D02*
X001113Y008286D01*
X000916Y008286D02*
X000916Y008136D01*
X000866Y008136D02*
X000966Y008136D01*
X000866Y008236D02*
X000916Y008286D01*
X000901Y007846D02*
X000866Y007811D01*
X000901Y007846D02*
X000971Y007846D01*
X001006Y007811D01*
X001006Y007776D01*
X000866Y007636D01*
X001006Y007636D01*
X001068Y007636D02*
X001209Y007776D01*
X001209Y007811D01*
X001174Y007846D01*
X001103Y007846D01*
X001068Y007811D01*
X001068Y007636D02*
X001209Y007636D01*
X001271Y007636D02*
X001271Y007776D01*
X001306Y007776D01*
X001341Y007741D01*
X001376Y007776D01*
X001411Y007741D01*
X001411Y007636D01*
X001474Y007636D02*
X001544Y007636D01*
X001509Y007636D02*
X001509Y007776D01*
X001474Y007776D01*
X001509Y007846D02*
X001509Y007881D01*
X001609Y007846D02*
X001644Y007846D01*
X001644Y007636D01*
X001609Y007636D02*
X001679Y007636D01*
X001744Y007741D02*
X001884Y007741D01*
X001946Y007811D02*
X001946Y007846D01*
X001981Y007846D01*
X001981Y007811D01*
X001946Y007811D01*
X001849Y007846D02*
X001849Y007636D01*
X001946Y007636D02*
X002121Y007846D01*
X002121Y007671D02*
X002121Y007636D01*
X002086Y007636D01*
X002086Y007671D01*
X002121Y007671D01*
X001849Y007846D02*
X001744Y007741D01*
X001714Y007366D02*
X001714Y007136D01*
X001676Y007136D02*
X001753Y007136D01*
X001823Y007251D02*
X001977Y007251D01*
X002044Y007328D02*
X002044Y007366D01*
X002083Y007366D01*
X002083Y007328D01*
X002044Y007328D01*
X001939Y007366D02*
X001939Y007136D01*
X002044Y007136D02*
X002236Y007366D01*
X002236Y007174D02*
X002236Y007136D01*
X002198Y007136D01*
X002198Y007174D01*
X002236Y007174D01*
X002208Y006926D02*
X002063Y006781D01*
X002256Y006781D01*
X002339Y006878D02*
X002339Y006926D01*
X002387Y006926D01*
X002387Y006878D01*
X002339Y006878D01*
X002208Y006926D02*
X002208Y006636D01*
X002339Y006636D02*
X002581Y006926D01*
X002581Y006684D02*
X002532Y006684D01*
X002532Y006636D01*
X002581Y006636D01*
X002581Y006684D01*
X002489Y006446D02*
X002489Y006395D01*
X002437Y006395D01*
X002437Y006446D01*
X002489Y006446D01*
X002298Y006446D02*
X002143Y006291D01*
X002349Y006291D01*
X002298Y006136D02*
X002298Y006446D01*
X001998Y006446D02*
X001998Y006136D01*
X001946Y006136D02*
X002050Y006136D01*
X001853Y006136D02*
X001750Y006136D01*
X001801Y006136D02*
X001801Y006343D01*
X001750Y006343D01*
X001662Y006291D02*
X001662Y006136D01*
X001559Y006136D02*
X001559Y006291D01*
X001610Y006343D01*
X001662Y006291D01*
X001559Y006291D02*
X001507Y006343D01*
X001455Y006343D01*
X001455Y006136D01*
X001367Y006136D02*
X001161Y006136D01*
X001367Y006343D01*
X001367Y006395D01*
X001316Y006446D01*
X001212Y006446D01*
X001161Y006395D01*
X001073Y006395D02*
X001073Y006343D01*
X001021Y006291D01*
X001073Y006239D01*
X001073Y006188D01*
X001021Y006136D01*
X000918Y006136D01*
X000866Y006188D01*
X000969Y006291D02*
X001021Y006291D01*
X001073Y006395D02*
X001021Y006446D01*
X000918Y006446D01*
X000866Y006395D01*
X000914Y006636D02*
X000866Y006684D01*
X000914Y006636D02*
X001011Y006636D01*
X001059Y006684D01*
X001059Y006733D01*
X001011Y006781D01*
X000963Y006781D01*
X001011Y006781D02*
X001059Y006829D01*
X001059Y006878D01*
X001011Y006926D01*
X000914Y006926D01*
X000866Y006878D01*
X000866Y007136D02*
X001019Y007289D01*
X001019Y007328D01*
X000981Y007366D01*
X000904Y007366D01*
X000866Y007328D01*
X000866Y007136D02*
X001019Y007136D01*
X001087Y007251D02*
X001240Y007251D01*
X001308Y007289D02*
X001346Y007289D01*
X001385Y007251D01*
X001423Y007289D01*
X001461Y007251D01*
X001461Y007136D01*
X001529Y007136D02*
X001606Y007136D01*
X001567Y007136D02*
X001567Y007289D01*
X001529Y007289D01*
X001567Y007366D02*
X001567Y007405D01*
X001676Y007366D02*
X001714Y007366D01*
X001823Y007251D02*
X001939Y007366D01*
X001743Y006975D02*
X001743Y006926D01*
X001743Y006829D02*
X001743Y006636D01*
X001695Y006636D02*
X001791Y006636D01*
X001879Y006636D02*
X001975Y006636D01*
X001927Y006636D02*
X001927Y006926D01*
X001879Y006926D01*
X001743Y006829D02*
X001695Y006829D01*
X001612Y006781D02*
X001612Y006636D01*
X001515Y006636D02*
X001515Y006781D01*
X001563Y006829D01*
X001612Y006781D01*
X001515Y006781D02*
X001467Y006829D01*
X001418Y006829D01*
X001418Y006636D01*
X001336Y006684D02*
X001287Y006636D01*
X001190Y006636D01*
X001142Y006684D01*
X001336Y006878D01*
X001336Y006684D01*
X001336Y006878D02*
X001287Y006926D01*
X001190Y006926D01*
X001142Y006878D01*
X001142Y006684D01*
X001202Y007136D02*
X001202Y007366D01*
X001087Y007251D01*
X001308Y007289D02*
X001308Y007136D01*
X001385Y007136D02*
X001385Y007251D01*
X001341Y007636D02*
X001341Y007741D01*
X001579Y008136D02*
X001579Y008286D01*
X001504Y008211D01*
X001604Y008211D01*
X001652Y008261D02*
X001652Y008286D01*
X001677Y008286D01*
X001677Y008261D01*
X001652Y008261D01*
X001652Y008136D02*
X001777Y008286D01*
X001777Y008161D02*
X001752Y008161D01*
X001752Y008136D01*
X001777Y008136D01*
X001777Y008161D01*
X001801Y006498D02*
X001801Y006446D01*
X001946Y006446D02*
X001998Y006446D01*
X002437Y006136D02*
X002696Y006446D01*
X002696Y006188D02*
X002696Y006136D01*
X002644Y006136D01*
X002644Y006188D01*
X002696Y006188D01*
X008408Y001326D02*
X008458Y001376D01*
X008458Y001226D01*
X008408Y001226D02*
X008508Y001226D01*
X008556Y001251D02*
X008581Y001226D01*
X008631Y001226D01*
X008656Y001251D01*
X008656Y001276D01*
X008631Y001301D01*
X008556Y001301D01*
X008556Y001251D01*
X008556Y001301D02*
X008606Y001351D01*
X008656Y001376D01*
X008703Y001326D02*
X008728Y001326D01*
X008753Y001301D01*
X008778Y001326D01*
X008803Y001301D01*
X008803Y001226D01*
X008850Y001226D02*
X008900Y001226D01*
X008875Y001226D02*
X008875Y001326D01*
X008850Y001326D01*
X008875Y001376D02*
X008875Y001401D01*
X008948Y001376D02*
X008973Y001376D01*
X008973Y001226D01*
X008948Y001226D02*
X008998Y001226D01*
X009047Y001251D02*
X009047Y001276D01*
X009072Y001301D01*
X009122Y001301D01*
X009147Y001276D01*
X009147Y001251D01*
X009122Y001226D01*
X009072Y001226D01*
X009047Y001251D01*
X009072Y001301D02*
X009047Y001326D01*
X009047Y001351D01*
X009072Y001376D01*
X009122Y001376D01*
X009147Y001351D01*
X009147Y001326D01*
X009122Y001301D01*
X009194Y001351D02*
X009194Y001376D01*
X009219Y001376D01*
X009219Y001351D01*
X009194Y001351D01*
X009194Y001226D02*
X009319Y001376D01*
X009319Y001251D02*
X009319Y001226D01*
X009294Y001226D01*
X009294Y001251D01*
X009319Y001251D01*
X009329Y000876D02*
X009237Y000766D01*
X009200Y000784D02*
X009181Y000766D01*
X009145Y000766D01*
X009126Y000784D01*
X009126Y000803D01*
X009145Y000821D01*
X009181Y000821D01*
X009200Y000803D01*
X009200Y000784D01*
X009181Y000821D02*
X009200Y000839D01*
X009200Y000858D01*
X009181Y000876D01*
X009145Y000876D01*
X009126Y000858D01*
X009126Y000839D01*
X009145Y000821D01*
X009089Y000766D02*
X009053Y000766D01*
X009071Y000766D02*
X009071Y000876D01*
X009053Y000876D01*
X008997Y000876D02*
X008997Y000894D01*
X008997Y000839D02*
X008997Y000766D01*
X008979Y000766D02*
X009016Y000766D01*
X008942Y000766D02*
X008942Y000821D01*
X008924Y000839D01*
X008905Y000821D01*
X008905Y000766D01*
X008869Y000766D02*
X008869Y000839D01*
X008887Y000839D01*
X008905Y000821D01*
X008832Y000839D02*
X008832Y000858D01*
X008813Y000876D01*
X008776Y000876D01*
X008758Y000858D01*
X008684Y000876D02*
X008684Y000766D01*
X008648Y000766D02*
X008721Y000766D01*
X008758Y000766D02*
X008832Y000839D01*
X008832Y000766D02*
X008758Y000766D01*
X008648Y000839D02*
X008684Y000876D01*
X008979Y000839D02*
X008997Y000839D01*
X009237Y000858D02*
X009237Y000876D01*
X009255Y000876D01*
X009255Y000858D01*
X009237Y000858D01*
X009310Y000784D02*
X009329Y000784D01*
X009329Y000766D01*
X009310Y000766D01*
X009310Y000784D01*
X008753Y001226D02*
X008753Y001301D01*
X008703Y001326D02*
X008703Y001226D01*
X009012Y012857D02*
X009012Y012907D01*
X009013Y012906D02*
X009028Y012909D01*
X009042Y012914D01*
X009055Y012923D01*
X009066Y012934D01*
X009075Y012947D01*
X009080Y012961D01*
X009083Y012976D01*
X009132Y012977D01*
X009133Y012976D01*
X009130Y012955D01*
X009124Y012936D01*
X009115Y012917D01*
X009103Y012900D01*
X009089Y012886D01*
X009072Y012874D01*
X009053Y012865D01*
X009034Y012859D01*
X009013Y012856D01*
X009013Y012865D01*
X009032Y012868D01*
X009050Y012873D01*
X009067Y012881D01*
X009083Y012892D01*
X009097Y012906D01*
X009108Y012922D01*
X009116Y012939D01*
X009121Y012957D01*
X009124Y012976D01*
X009115Y012976D01*
X009112Y012956D01*
X009106Y012938D01*
X009096Y012921D01*
X009084Y012905D01*
X009068Y012893D01*
X009051Y012883D01*
X009033Y012877D01*
X009013Y012874D01*
X009013Y012883D01*
X009031Y012886D01*
X009048Y012891D01*
X009063Y012900D01*
X009077Y012912D01*
X009089Y012926D01*
X009098Y012941D01*
X009103Y012958D01*
X009106Y012976D01*
X009097Y012976D01*
X009094Y012958D01*
X009087Y012940D01*
X009077Y012925D01*
X009064Y012912D01*
X009049Y012902D01*
X009031Y012895D01*
X009013Y012892D01*
X009013Y012901D01*
X009029Y012904D01*
X009045Y012910D01*
X009058Y012919D01*
X009070Y012931D01*
X009079Y012944D01*
X009085Y012960D01*
X009088Y012976D01*
X009132Y013485D02*
X009082Y013485D01*
X009083Y013486D02*
X009080Y013501D01*
X009075Y013515D01*
X009066Y013528D01*
X009055Y013539D01*
X009042Y013548D01*
X009028Y013553D01*
X009013Y013556D01*
X009012Y013605D01*
X009013Y013606D01*
X009034Y013603D01*
X009053Y013597D01*
X009072Y013588D01*
X009089Y013576D01*
X009103Y013562D01*
X009115Y013545D01*
X009124Y013526D01*
X009130Y013507D01*
X009133Y013486D01*
X009124Y013486D01*
X009121Y013505D01*
X009116Y013523D01*
X009108Y013540D01*
X009097Y013556D01*
X009083Y013570D01*
X009067Y013581D01*
X009050Y013589D01*
X009032Y013594D01*
X009013Y013597D01*
X009013Y013588D01*
X009033Y013585D01*
X009051Y013579D01*
X009068Y013569D01*
X009084Y013557D01*
X009096Y013541D01*
X009106Y013524D01*
X009112Y013506D01*
X009115Y013486D01*
X009106Y013486D01*
X009103Y013504D01*
X009098Y013521D01*
X009089Y013536D01*
X009077Y013550D01*
X009063Y013562D01*
X009048Y013571D01*
X009031Y013576D01*
X009013Y013579D01*
X009013Y013570D01*
X009031Y013567D01*
X009049Y013560D01*
X009064Y013550D01*
X009077Y013537D01*
X009087Y013522D01*
X009094Y013504D01*
X009097Y013486D01*
X009088Y013486D01*
X009085Y013502D01*
X009079Y013518D01*
X009070Y013531D01*
X009058Y013543D01*
X009045Y013552D01*
X009029Y013558D01*
X009013Y013561D01*
X007804Y013605D02*
X007804Y013555D01*
X007803Y013556D02*
X007788Y013553D01*
X007774Y013548D01*
X007761Y013539D01*
X007750Y013528D01*
X007741Y013515D01*
X007736Y013501D01*
X007733Y013486D01*
X007684Y013485D01*
X007683Y013486D01*
X007686Y013507D01*
X007692Y013526D01*
X007701Y013545D01*
X007713Y013562D01*
X007727Y013576D01*
X007744Y013588D01*
X007763Y013597D01*
X007782Y013603D01*
X007803Y013606D01*
X007803Y013597D01*
X007784Y013594D01*
X007766Y013589D01*
X007749Y013581D01*
X007733Y013570D01*
X007719Y013556D01*
X007708Y013540D01*
X007700Y013523D01*
X007695Y013505D01*
X007692Y013486D01*
X007701Y013486D01*
X007704Y013506D01*
X007710Y013524D01*
X007720Y013541D01*
X007732Y013557D01*
X007748Y013569D01*
X007765Y013579D01*
X007783Y013585D01*
X007803Y013588D01*
X007803Y013579D01*
X007785Y013576D01*
X007768Y013571D01*
X007753Y013562D01*
X007739Y013550D01*
X007727Y013536D01*
X007718Y013521D01*
X007713Y013504D01*
X007710Y013486D01*
X007719Y013486D01*
X007722Y013504D01*
X007729Y013522D01*
X007739Y013537D01*
X007752Y013550D01*
X007767Y013560D01*
X007785Y013567D01*
X007803Y013570D01*
X007803Y013561D01*
X007787Y013558D01*
X007771Y013552D01*
X007758Y013543D01*
X007746Y013531D01*
X007737Y013518D01*
X007731Y013502D01*
X007728Y013486D01*
X007684Y012977D02*
X007734Y012977D01*
X007733Y012976D02*
X007736Y012961D01*
X007741Y012947D01*
X007750Y012934D01*
X007761Y012923D01*
X007774Y012914D01*
X007788Y012909D01*
X007803Y012906D01*
X007804Y012857D01*
X007803Y012856D01*
X007782Y012859D01*
X007763Y012865D01*
X007744Y012874D01*
X007727Y012886D01*
X007713Y012900D01*
X007701Y012917D01*
X007692Y012936D01*
X007686Y012955D01*
X007683Y012976D01*
X007692Y012976D01*
X007695Y012957D01*
X007700Y012939D01*
X007708Y012922D01*
X007719Y012906D01*
X007733Y012892D01*
X007749Y012881D01*
X007766Y012873D01*
X007784Y012868D01*
X007803Y012865D01*
X007803Y012874D01*
X007783Y012877D01*
X007765Y012883D01*
X007748Y012893D01*
X007732Y012905D01*
X007720Y012921D01*
X007710Y012938D01*
X007704Y012956D01*
X007701Y012976D01*
X007710Y012976D01*
X007713Y012958D01*
X007718Y012941D01*
X007727Y012926D01*
X007739Y012912D01*
X007753Y012900D01*
X007768Y012891D01*
X007785Y012886D01*
X007803Y012883D01*
X007803Y012892D01*
X007785Y012895D01*
X007767Y012902D01*
X007752Y012912D01*
X007739Y012925D01*
X007729Y012940D01*
X007722Y012958D01*
X007719Y012976D01*
X007728Y012976D01*
X007731Y012960D01*
X007737Y012944D01*
X007746Y012931D01*
X007758Y012919D01*
X007771Y012910D01*
X007787Y012904D01*
X007803Y012901D01*
X007634Y015977D02*
X007684Y015977D01*
X007683Y015976D02*
X007686Y015961D01*
X007691Y015947D01*
X007700Y015934D01*
X007711Y015923D01*
X007724Y015914D01*
X007738Y015909D01*
X007753Y015906D01*
X007754Y015857D01*
X007753Y015856D01*
X007732Y015859D01*
X007713Y015865D01*
X007694Y015874D01*
X007677Y015886D01*
X007663Y015900D01*
X007651Y015917D01*
X007642Y015936D01*
X007636Y015955D01*
X007633Y015976D01*
X007642Y015976D01*
X007645Y015957D01*
X007650Y015939D01*
X007658Y015922D01*
X007669Y015906D01*
X007683Y015892D01*
X007699Y015881D01*
X007716Y015873D01*
X007734Y015868D01*
X007753Y015865D01*
X007753Y015874D01*
X007733Y015877D01*
X007715Y015883D01*
X007698Y015893D01*
X007682Y015905D01*
X007670Y015921D01*
X007660Y015938D01*
X007654Y015956D01*
X007651Y015976D01*
X007660Y015976D01*
X007663Y015958D01*
X007668Y015941D01*
X007677Y015926D01*
X007689Y015912D01*
X007703Y015900D01*
X007718Y015891D01*
X007735Y015886D01*
X007753Y015883D01*
X007753Y015892D01*
X007735Y015895D01*
X007717Y015902D01*
X007702Y015912D01*
X007689Y015925D01*
X007679Y015940D01*
X007672Y015958D01*
X007669Y015976D01*
X007678Y015976D01*
X007681Y015960D01*
X007687Y015944D01*
X007696Y015931D01*
X007708Y015919D01*
X007721Y015910D01*
X007737Y015904D01*
X007753Y015901D01*
X007754Y016805D02*
X007754Y016755D01*
X007753Y016756D02*
X007738Y016753D01*
X007724Y016748D01*
X007711Y016739D01*
X007700Y016728D01*
X007691Y016715D01*
X007686Y016701D01*
X007683Y016686D01*
X007634Y016685D01*
X007633Y016686D01*
X007636Y016707D01*
X007642Y016726D01*
X007651Y016745D01*
X007663Y016762D01*
X007677Y016776D01*
X007694Y016788D01*
X007713Y016797D01*
X007732Y016803D01*
X007753Y016806D01*
X007753Y016797D01*
X007734Y016794D01*
X007716Y016789D01*
X007699Y016781D01*
X007683Y016770D01*
X007669Y016756D01*
X007658Y016740D01*
X007650Y016723D01*
X007645Y016705D01*
X007642Y016686D01*
X007651Y016686D01*
X007654Y016706D01*
X007660Y016724D01*
X007670Y016741D01*
X007682Y016757D01*
X007698Y016769D01*
X007715Y016779D01*
X007733Y016785D01*
X007753Y016788D01*
X007753Y016779D01*
X007735Y016776D01*
X007718Y016771D01*
X007703Y016762D01*
X007689Y016750D01*
X007677Y016736D01*
X007668Y016721D01*
X007663Y016704D01*
X007660Y016686D01*
X007669Y016686D01*
X007672Y016704D01*
X007679Y016722D01*
X007689Y016737D01*
X007702Y016750D01*
X007717Y016760D01*
X007735Y016767D01*
X007753Y016770D01*
X007753Y016761D01*
X007737Y016758D01*
X007721Y016752D01*
X007708Y016743D01*
X007696Y016731D01*
X007687Y016718D01*
X007681Y016702D01*
X007678Y016686D01*
X010182Y016685D02*
X010132Y016685D01*
X010133Y016686D02*
X010130Y016701D01*
X010125Y016715D01*
X010116Y016728D01*
X010105Y016739D01*
X010092Y016748D01*
X010078Y016753D01*
X010063Y016756D01*
X010062Y016805D01*
X010063Y016806D01*
X010084Y016803D01*
X010103Y016797D01*
X010122Y016788D01*
X010139Y016776D01*
X010153Y016762D01*
X010165Y016745D01*
X010174Y016726D01*
X010180Y016707D01*
X010183Y016686D01*
X010174Y016686D01*
X010171Y016705D01*
X010166Y016723D01*
X010158Y016740D01*
X010147Y016756D01*
X010133Y016770D01*
X010117Y016781D01*
X010100Y016789D01*
X010082Y016794D01*
X010063Y016797D01*
X010063Y016788D01*
X010083Y016785D01*
X010101Y016779D01*
X010118Y016769D01*
X010134Y016757D01*
X010146Y016741D01*
X010156Y016724D01*
X010162Y016706D01*
X010165Y016686D01*
X010156Y016686D01*
X010153Y016704D01*
X010148Y016721D01*
X010139Y016736D01*
X010127Y016750D01*
X010113Y016762D01*
X010098Y016771D01*
X010081Y016776D01*
X010063Y016779D01*
X010063Y016770D01*
X010081Y016767D01*
X010099Y016760D01*
X010114Y016750D01*
X010127Y016737D01*
X010137Y016722D01*
X010144Y016704D01*
X010147Y016686D01*
X010138Y016686D01*
X010135Y016702D01*
X010129Y016718D01*
X010120Y016731D01*
X010108Y016743D01*
X010095Y016752D01*
X010079Y016758D01*
X010063Y016761D01*
X010062Y015857D02*
X010062Y015907D01*
X010063Y015906D02*
X010078Y015909D01*
X010092Y015914D01*
X010105Y015923D01*
X010116Y015934D01*
X010125Y015947D01*
X010130Y015961D01*
X010133Y015976D01*
X010182Y015977D01*
X010183Y015976D01*
X010180Y015955D01*
X010174Y015936D01*
X010165Y015917D01*
X010153Y015900D01*
X010139Y015886D01*
X010122Y015874D01*
X010103Y015865D01*
X010084Y015859D01*
X010063Y015856D01*
X010063Y015865D01*
X010082Y015868D01*
X010100Y015873D01*
X010117Y015881D01*
X010133Y015892D01*
X010147Y015906D01*
X010158Y015922D01*
X010166Y015939D01*
X010171Y015957D01*
X010174Y015976D01*
X010165Y015976D01*
X010162Y015956D01*
X010156Y015938D01*
X010146Y015921D01*
X010134Y015905D01*
X010118Y015893D01*
X010101Y015883D01*
X010083Y015877D01*
X010063Y015874D01*
X010063Y015883D01*
X010081Y015886D01*
X010098Y015891D01*
X010113Y015900D01*
X010127Y015912D01*
X010139Y015926D01*
X010148Y015941D01*
X010153Y015958D01*
X010156Y015976D01*
X010147Y015976D01*
X010144Y015958D01*
X010137Y015940D01*
X010127Y015925D01*
X010114Y015912D01*
X010099Y015902D01*
X010081Y015895D01*
X010063Y015892D01*
X010063Y015901D01*
X010079Y015904D01*
X010095Y015910D01*
X010108Y015919D01*
X010120Y015931D01*
X010129Y015944D01*
X010135Y015960D01*
X010138Y015976D01*
D15*
X010231Y015626D02*
X010354Y015503D01*
X010354Y015256D01*
X010475Y015256D02*
X010475Y015626D01*
X010722Y015626D01*
X010599Y015441D02*
X010475Y015441D01*
X010354Y015441D02*
X010107Y015441D01*
X010107Y015503D02*
X010231Y015626D01*
X010107Y015503D02*
X010107Y015256D01*
X009924Y015565D02*
X009986Y015626D01*
X009924Y015565D02*
X009801Y015688D01*
X009739Y015626D01*
X009617Y015626D02*
X009617Y015565D01*
X009371Y015318D01*
X009371Y015256D01*
X009002Y015256D02*
X009249Y015626D01*
X009371Y015626D02*
X009617Y015626D01*
X008881Y015441D02*
X008634Y015441D01*
X008819Y015626D01*
X008819Y015256D01*
X008512Y015318D02*
X008451Y015256D01*
X008327Y015256D01*
X008266Y015318D01*
X008512Y015565D01*
X008512Y015318D01*
X008266Y015318D02*
X008266Y015565D01*
X008327Y015626D01*
X008451Y015626D01*
X008512Y015565D01*
X008144Y015565D02*
X008082Y015626D01*
X007959Y015626D01*
X007897Y015565D01*
X007776Y015565D02*
X007776Y015318D01*
X007714Y015256D01*
X007591Y015256D01*
X007529Y015318D01*
X007776Y015565D01*
X007714Y015626D01*
X007591Y015626D01*
X007529Y015565D01*
X007529Y015318D01*
X007897Y015256D02*
X008144Y015503D01*
X008144Y015565D01*
X008144Y015256D02*
X007897Y015256D01*
X007840Y014076D02*
X007964Y014076D01*
X008026Y014015D01*
X007779Y013768D01*
X007840Y013706D01*
X007964Y013706D01*
X008026Y013768D01*
X008026Y014015D01*
X008147Y013891D02*
X008394Y013891D01*
X008332Y013706D02*
X008332Y014076D01*
X008147Y013891D01*
X007840Y014076D02*
X007779Y014015D01*
X007779Y013768D01*
X007657Y013706D02*
X007410Y013706D01*
X007657Y013953D01*
X007657Y014015D01*
X007596Y014076D01*
X007472Y014076D01*
X007410Y014015D01*
X007289Y014015D02*
X007042Y013768D01*
X007104Y013706D01*
X007227Y013706D01*
X007289Y013768D01*
X007289Y014015D01*
X007227Y014076D01*
X007104Y014076D01*
X007042Y014015D01*
X007042Y013768D01*
X007123Y012591D02*
X007247Y012591D01*
X007308Y012529D01*
X007061Y012282D01*
X007123Y012220D01*
X007247Y012220D01*
X007308Y012282D01*
X007308Y012529D01*
X007430Y012529D02*
X007491Y012591D01*
X007615Y012591D01*
X007677Y012529D01*
X007677Y012467D01*
X007430Y012220D01*
X007677Y012220D01*
X007798Y012282D02*
X008045Y012529D01*
X008045Y012282D01*
X007983Y012220D01*
X007860Y012220D01*
X007798Y012282D01*
X007798Y012529D01*
X007860Y012591D01*
X007983Y012591D01*
X008045Y012529D01*
X008166Y012405D02*
X008413Y012405D01*
X008535Y012344D02*
X008658Y012220D01*
X008782Y012344D01*
X008782Y012591D01*
X008903Y012591D02*
X008965Y012652D01*
X009088Y012529D01*
X009150Y012591D01*
X009271Y012467D02*
X009395Y012591D01*
X009518Y012467D01*
X009518Y012220D01*
X009640Y012220D02*
X009640Y012591D01*
X009886Y012591D01*
X009763Y012405D02*
X009640Y012405D01*
X009518Y012405D02*
X009271Y012405D01*
X009271Y012467D02*
X009271Y012220D01*
X009919Y011610D02*
X009857Y011548D01*
X009857Y011487D01*
X009919Y011425D01*
X010042Y011425D01*
X010104Y011363D01*
X010104Y011302D01*
X010042Y011240D01*
X009919Y011240D01*
X009857Y011302D01*
X009919Y011610D02*
X010042Y011610D01*
X010104Y011548D01*
X010225Y011548D02*
X010225Y011302D01*
X010287Y011240D01*
X010410Y011240D01*
X010472Y011302D01*
X010472Y011548D01*
X010410Y011610D01*
X010287Y011610D01*
X010225Y011548D01*
X010593Y011610D02*
X010840Y011610D01*
X010717Y011610D02*
X010717Y011240D01*
X010962Y011240D02*
X011209Y011487D01*
X011209Y011548D01*
X011147Y011610D01*
X011023Y011610D01*
X010962Y011548D01*
X010962Y011240D02*
X011209Y011240D01*
X011330Y011302D02*
X011392Y011240D01*
X011515Y011240D01*
X011577Y011302D01*
X011577Y011363D01*
X011515Y011425D01*
X011453Y011425D01*
X011515Y011425D02*
X011577Y011487D01*
X011577Y011548D01*
X011515Y011610D01*
X011392Y011610D01*
X011330Y011548D01*
X011698Y011610D02*
X011884Y011610D01*
X011945Y011548D01*
X011945Y011425D01*
X011884Y011363D01*
X011698Y011363D01*
X011698Y011240D02*
X011698Y011610D01*
X011822Y011363D02*
X011945Y011240D01*
X012050Y010610D02*
X012112Y010610D01*
X012174Y010549D01*
X012235Y010610D01*
X012297Y010610D01*
X012359Y010549D01*
X012359Y010425D01*
X012297Y010364D01*
X012297Y010242D02*
X012359Y010180D01*
X012359Y010057D01*
X012297Y009995D01*
X012050Y010242D01*
X012297Y010242D01*
X012297Y009995D02*
X012050Y009995D01*
X011989Y010057D01*
X011989Y010180D01*
X012050Y010242D01*
X012050Y010364D02*
X011989Y010425D01*
X011989Y010549D01*
X012050Y010610D01*
X012174Y010549D02*
X012174Y010487D01*
X012235Y009874D02*
X012174Y009812D01*
X012174Y009627D01*
X012297Y009627D01*
X012359Y009689D01*
X012359Y009812D01*
X012297Y009874D01*
X012235Y009874D01*
X012050Y009750D02*
X012174Y009627D01*
X012297Y009506D02*
X012050Y009506D01*
X012297Y009259D01*
X012359Y009320D01*
X012359Y009444D01*
X012297Y009506D01*
X012297Y009259D02*
X012050Y009259D01*
X011989Y009320D01*
X011989Y009444D01*
X012050Y009506D01*
X012050Y009750D02*
X011989Y009874D01*
X011815Y009762D02*
X011815Y009392D01*
X011692Y009515D01*
X011569Y009392D01*
X011569Y009762D01*
X011447Y009700D02*
X011447Y009639D01*
X011385Y009577D01*
X011447Y009515D01*
X011447Y009453D01*
X011385Y009392D01*
X011262Y009392D01*
X011200Y009453D01*
X011079Y009392D02*
X010832Y009392D01*
X011079Y009639D01*
X011079Y009700D01*
X011017Y009762D01*
X010894Y009762D01*
X010832Y009700D01*
X010710Y009700D02*
X010710Y009639D01*
X010649Y009577D01*
X010710Y009515D01*
X010710Y009453D01*
X010649Y009392D01*
X010525Y009392D01*
X010464Y009453D01*
X010587Y009577D02*
X010649Y009577D01*
X010710Y009700D02*
X010649Y009762D01*
X010525Y009762D01*
X010464Y009700D01*
X010342Y009762D02*
X010095Y009762D01*
X010219Y009762D02*
X010219Y009392D01*
X009974Y009453D02*
X009974Y009700D01*
X009912Y009762D01*
X009789Y009762D01*
X009727Y009700D01*
X009727Y009453D01*
X009789Y009392D01*
X009912Y009392D01*
X009974Y009453D01*
X009606Y009453D02*
X009544Y009392D01*
X009420Y009392D01*
X009359Y009453D01*
X009420Y009577D02*
X009359Y009639D01*
X009359Y009700D01*
X009420Y009762D01*
X009544Y009762D01*
X009606Y009700D01*
X009544Y009577D02*
X009606Y009515D01*
X009606Y009453D01*
X009544Y009577D02*
X009420Y009577D01*
X009420Y008089D02*
X009359Y008027D01*
X009359Y007965D01*
X009420Y007904D01*
X009544Y007904D01*
X009606Y007842D01*
X009606Y007780D01*
X009544Y007718D01*
X009420Y007718D01*
X009359Y007780D01*
X009420Y008089D02*
X009544Y008089D01*
X009606Y008027D01*
X009727Y008027D02*
X009727Y007780D01*
X009789Y007718D01*
X009912Y007718D01*
X009974Y007780D01*
X009974Y008027D01*
X009912Y008089D01*
X009789Y008089D01*
X009727Y008027D01*
X010095Y008089D02*
X010342Y008089D01*
X010219Y008089D02*
X010219Y007718D01*
X010464Y007780D02*
X010525Y007718D01*
X010649Y007718D01*
X010710Y007780D01*
X010710Y007842D01*
X010649Y007904D01*
X010587Y007904D01*
X010649Y007904D02*
X010710Y007965D01*
X010710Y008027D01*
X010649Y008089D01*
X010525Y008089D01*
X010464Y008027D01*
X010832Y008027D02*
X010894Y008089D01*
X011017Y008089D01*
X011079Y008027D01*
X011079Y007965D01*
X010832Y007718D01*
X011079Y007718D01*
X011200Y007780D02*
X011262Y007718D01*
X011385Y007718D01*
X011447Y007780D01*
X011447Y007842D01*
X011385Y007904D01*
X011324Y007904D01*
X011385Y007904D02*
X011447Y007965D01*
X011447Y008027D01*
X011385Y008089D01*
X011262Y008089D01*
X011200Y008027D01*
X011569Y008089D02*
X011569Y007718D01*
X011569Y007842D02*
X011754Y007842D01*
X011815Y007904D01*
X011815Y008027D01*
X011754Y008089D01*
X011569Y008089D01*
X011692Y007842D02*
X011815Y007718D01*
X011989Y007785D02*
X012359Y007785D01*
X012359Y008032D01*
X012359Y008154D02*
X012359Y008401D01*
X012359Y008522D02*
X012359Y008707D01*
X012297Y008769D01*
X012050Y008769D01*
X011989Y008707D01*
X011989Y008522D01*
X012359Y008522D01*
X012174Y008277D02*
X012174Y008154D01*
X011989Y008154D02*
X012359Y008154D01*
X011989Y008154D02*
X011989Y008401D01*
X012421Y008890D02*
X012421Y009137D01*
X013187Y009322D02*
X013187Y009445D01*
X013249Y009507D01*
X013496Y009260D01*
X013557Y009322D01*
X013557Y009445D01*
X013496Y009507D01*
X013249Y009507D01*
X013249Y009629D02*
X013310Y009629D01*
X013372Y009690D01*
X013372Y009814D01*
X013434Y009875D01*
X013496Y009875D01*
X013557Y009814D01*
X013557Y009690D01*
X013496Y009629D01*
X013434Y009629D01*
X013372Y009690D01*
X013372Y009814D02*
X013310Y009875D01*
X013249Y009875D01*
X013187Y009814D01*
X013187Y009690D01*
X013249Y009629D01*
X013187Y009322D02*
X013249Y009260D01*
X013496Y009260D01*
X013619Y009139D02*
X013619Y008892D01*
X013496Y008770D02*
X013249Y008770D01*
X013187Y008709D01*
X013187Y008524D01*
X013557Y008524D01*
X013557Y008709D01*
X013496Y008770D01*
X013557Y008402D02*
X013557Y008155D01*
X013187Y008155D01*
X013187Y008402D01*
X013372Y008279D02*
X013372Y008155D01*
X013557Y008034D02*
X013557Y007787D01*
X013187Y007787D01*
X013249Y007666D02*
X013372Y007666D01*
X013434Y007604D01*
X013434Y007419D01*
X013557Y007419D02*
X013187Y007419D01*
X013187Y007604D01*
X013249Y007666D01*
X013187Y007297D02*
X013187Y007173D01*
X013187Y007235D02*
X013557Y007235D01*
X013557Y007173D02*
X013557Y007297D01*
X013557Y007052D02*
X013187Y007052D01*
X013372Y007052D02*
X013372Y006805D01*
X013249Y006683D02*
X013187Y006622D01*
X013187Y006498D01*
X013249Y006437D01*
X013496Y006437D01*
X013557Y006498D01*
X013557Y006622D01*
X013496Y006683D01*
X013557Y006805D02*
X013187Y006805D01*
X012359Y006803D02*
X011989Y006803D01*
X012050Y006682D02*
X011989Y006620D01*
X011989Y006497D01*
X012050Y006435D01*
X012297Y006435D01*
X012359Y006497D01*
X012359Y006620D01*
X012297Y006682D01*
X012174Y006803D02*
X012174Y007050D01*
X011989Y007050D02*
X012359Y007050D01*
X012359Y007172D02*
X012359Y007295D01*
X012359Y007233D02*
X011989Y007233D01*
X011989Y007172D02*
X011989Y007295D01*
X011989Y007417D02*
X011989Y007602D01*
X012050Y007664D01*
X012174Y007664D01*
X012235Y007602D01*
X012235Y007417D01*
X012359Y007417D02*
X011989Y007417D01*
X011863Y006605D02*
X011925Y006543D01*
X011925Y006481D01*
X011863Y006419D01*
X011925Y006358D01*
X011925Y006296D01*
X011863Y006234D01*
X011740Y006234D01*
X011678Y006296D01*
X011557Y006234D02*
X011310Y006234D01*
X011557Y006481D01*
X011557Y006543D01*
X011495Y006605D01*
X011371Y006605D01*
X011310Y006543D01*
X011065Y006605D02*
X011065Y006234D01*
X011188Y006234D02*
X010941Y006234D01*
X010820Y006296D02*
X010820Y006543D01*
X010758Y006605D01*
X010573Y006605D01*
X010573Y006234D01*
X010758Y006234D01*
X010820Y006296D01*
X010941Y006481D02*
X011065Y006605D01*
X011678Y006543D02*
X011740Y006605D01*
X011863Y006605D01*
X011863Y006419D02*
X011801Y006419D01*
X012492Y005911D02*
X012492Y005541D01*
X012739Y005541D01*
X012860Y005541D02*
X012984Y005541D01*
X012922Y005541D02*
X012922Y005911D01*
X012860Y005911D02*
X012984Y005911D01*
X013106Y005787D02*
X013229Y005911D01*
X013353Y005787D01*
X013353Y005541D01*
X013474Y005541D02*
X013474Y005602D01*
X013721Y005849D01*
X013721Y005911D01*
X013474Y005911D01*
X013353Y005726D02*
X013106Y005726D01*
X013106Y005787D02*
X013106Y005541D01*
X012739Y005911D02*
X012492Y005911D01*
X012492Y005726D02*
X012615Y005726D01*
X011958Y005171D02*
X011958Y005109D01*
X011896Y005048D01*
X011958Y004986D01*
X011958Y004924D01*
X011896Y004863D01*
X011773Y004863D01*
X011711Y004924D01*
X011590Y004863D02*
X011343Y004863D01*
X011590Y005109D01*
X011590Y005171D01*
X011528Y005233D01*
X011404Y005233D01*
X011343Y005171D01*
X011221Y005171D02*
X011221Y005109D01*
X011160Y005048D01*
X011221Y004986D01*
X011221Y004924D01*
X011160Y004863D01*
X011036Y004863D01*
X010974Y004924D01*
X010853Y004924D02*
X010791Y004863D01*
X010606Y004863D01*
X010606Y005233D01*
X010791Y005233D01*
X010853Y005171D01*
X010853Y004924D01*
X011098Y005048D02*
X011160Y005048D01*
X011221Y005171D02*
X011160Y005233D01*
X011036Y005233D01*
X010974Y005171D01*
X010485Y005171D02*
X010485Y004924D01*
X010423Y004863D01*
X010300Y004863D01*
X010238Y004924D01*
X010238Y005171D01*
X010300Y005233D01*
X010423Y005233D01*
X010485Y005171D01*
X010116Y005171D02*
X010055Y005233D01*
X009931Y005233D01*
X009870Y005171D01*
X009870Y005109D01*
X009931Y005048D01*
X010055Y005048D01*
X010116Y004986D01*
X010116Y004924D01*
X010055Y004863D01*
X009931Y004863D01*
X009870Y004924D01*
X009879Y003982D02*
X009818Y003920D01*
X009818Y003858D01*
X009879Y003797D01*
X010003Y003797D01*
X010064Y003735D01*
X010064Y003673D01*
X010003Y003611D01*
X009879Y003611D01*
X009818Y003673D01*
X009879Y003982D02*
X010003Y003982D01*
X010064Y003920D01*
X010186Y003920D02*
X010186Y003673D01*
X010248Y003611D01*
X010371Y003611D01*
X010433Y003673D01*
X010433Y003920D01*
X010371Y003982D01*
X010248Y003982D01*
X010186Y003920D01*
X010554Y003982D02*
X010554Y003611D01*
X010739Y003611D01*
X010801Y003673D01*
X010801Y003920D01*
X010739Y003982D01*
X010554Y003982D01*
X010922Y003982D02*
X010922Y003797D01*
X011046Y003858D01*
X011108Y003858D01*
X011169Y003797D01*
X011169Y003673D01*
X011108Y003611D01*
X010984Y003611D01*
X010922Y003673D01*
X010922Y003982D02*
X011169Y003982D01*
X011291Y003920D02*
X011352Y003982D01*
X011476Y003982D01*
X011538Y003920D01*
X011538Y003858D01*
X011291Y003611D01*
X011538Y003611D01*
X011659Y003673D02*
X011721Y003611D01*
X011844Y003611D01*
X011906Y003673D01*
X011906Y003735D01*
X011844Y003797D01*
X011783Y003797D01*
X011844Y003797D02*
X011906Y003858D01*
X011906Y003920D01*
X011844Y003982D01*
X011721Y003982D01*
X011659Y003920D01*
X011834Y005048D02*
X011896Y005048D01*
X011958Y005171D02*
X011896Y005233D01*
X011773Y005233D01*
X011711Y005171D01*
X010452Y006296D02*
X010452Y006543D01*
X010390Y006605D01*
X010266Y006605D01*
X010205Y006543D01*
X010205Y006296D01*
X010266Y006234D01*
X010390Y006234D01*
X010452Y006296D01*
X010083Y006296D02*
X010022Y006234D01*
X009898Y006234D01*
X009836Y006296D01*
X009898Y006419D02*
X010022Y006419D01*
X010083Y006358D01*
X010083Y006296D01*
X009898Y006419D02*
X009836Y006481D01*
X009836Y006543D01*
X009898Y006605D01*
X010022Y006605D01*
X010083Y006543D01*
X008148Y003928D02*
X008148Y003866D01*
X008148Y003743D02*
X008148Y003496D01*
X008087Y003496D02*
X008210Y003496D01*
X008332Y003496D02*
X008456Y003496D01*
X008394Y003496D02*
X008394Y003866D01*
X008332Y003866D01*
X008148Y003743D02*
X008087Y003743D01*
X007965Y003681D02*
X007965Y003496D01*
X007842Y003496D02*
X007842Y003681D01*
X007904Y003743D01*
X007965Y003681D01*
X007842Y003681D02*
X007780Y003743D01*
X007718Y003743D01*
X007718Y003496D01*
X007597Y003558D02*
X007535Y003496D01*
X007412Y003496D01*
X007350Y003558D01*
X007597Y003805D01*
X007597Y003558D01*
X007606Y003366D02*
X007654Y003318D01*
X007654Y003269D01*
X007606Y003221D01*
X007654Y003173D01*
X007654Y003124D01*
X007606Y003076D01*
X007509Y003076D01*
X007461Y003124D01*
X007557Y003221D02*
X007606Y003221D01*
X007606Y003366D02*
X007509Y003366D01*
X007461Y003318D01*
X007755Y003318D02*
X007804Y003366D01*
X007900Y003366D01*
X007949Y003318D01*
X007949Y003269D01*
X007755Y003076D01*
X007949Y003076D01*
X008050Y003076D02*
X008050Y003269D01*
X008098Y003269D01*
X008147Y003221D01*
X008195Y003269D01*
X008243Y003221D01*
X008243Y003076D01*
X008147Y003076D02*
X008147Y003221D01*
X008345Y003269D02*
X008393Y003269D01*
X008393Y003076D01*
X008345Y003076D02*
X008441Y003076D01*
X008541Y003076D02*
X008638Y003076D01*
X008589Y003076D02*
X008589Y003366D01*
X008541Y003366D01*
X008393Y003366D02*
X008393Y003415D01*
X008578Y003558D02*
X008578Y003619D01*
X008639Y003681D01*
X008763Y003681D01*
X008825Y003619D01*
X008825Y003558D01*
X008763Y003496D01*
X008639Y003496D01*
X008578Y003558D01*
X008639Y003681D02*
X008578Y003743D01*
X008578Y003805D01*
X008639Y003866D01*
X008763Y003866D01*
X008825Y003805D01*
X008825Y003743D01*
X008763Y003681D01*
X008946Y003805D02*
X008946Y003866D01*
X009008Y003866D01*
X009008Y003805D01*
X008946Y003805D01*
X008946Y003496D02*
X009255Y003866D01*
X009255Y003558D02*
X009255Y003496D01*
X009193Y003496D01*
X009193Y003558D01*
X009255Y003558D01*
X009274Y003366D02*
X009032Y003076D01*
X008931Y003124D02*
X008931Y003173D01*
X008883Y003221D01*
X008786Y003221D01*
X008737Y003269D01*
X008737Y003318D01*
X008786Y003366D01*
X008883Y003366D01*
X008931Y003318D01*
X008931Y003269D01*
X008883Y003221D01*
X008786Y003221D02*
X008737Y003173D01*
X008737Y003124D01*
X008786Y003076D01*
X008883Y003076D01*
X008931Y003124D01*
X009032Y003318D02*
X009032Y003366D01*
X009080Y003366D01*
X009080Y003318D01*
X009032Y003318D01*
X009226Y003124D02*
X009274Y003124D01*
X009274Y003076D01*
X009226Y003076D01*
X009226Y003124D01*
X009721Y002563D02*
X009659Y002501D01*
X009659Y002439D01*
X009721Y002378D01*
X009844Y002378D01*
X009906Y002316D01*
X009906Y002254D01*
X009844Y002192D01*
X009721Y002192D01*
X009659Y002254D01*
X009906Y002501D02*
X009844Y002563D01*
X009721Y002563D01*
X010028Y002501D02*
X010028Y002254D01*
X010089Y002192D01*
X010213Y002192D01*
X010274Y002254D01*
X010274Y002501D01*
X010213Y002563D01*
X010089Y002563D01*
X010028Y002501D01*
X010396Y002563D02*
X010643Y002563D01*
X010519Y002563D02*
X010519Y002192D01*
X010764Y002192D02*
X011011Y002439D01*
X011011Y002501D01*
X010949Y002563D01*
X010826Y002563D01*
X010764Y002501D01*
X010764Y002192D02*
X011011Y002192D01*
X011133Y002254D02*
X011194Y002192D01*
X011318Y002192D01*
X011379Y002254D01*
X011379Y002316D01*
X011318Y002378D01*
X011256Y002378D01*
X011318Y002378D02*
X011379Y002439D01*
X011379Y002501D01*
X011318Y002563D01*
X011194Y002563D01*
X011133Y002501D01*
X011501Y002378D02*
X011748Y002378D01*
X011869Y002378D02*
X012054Y002378D01*
X012116Y002316D01*
X012116Y002254D01*
X012054Y002192D01*
X011931Y002192D01*
X011869Y002254D01*
X011869Y002378D01*
X011993Y002501D01*
X012116Y002563D01*
X012964Y002959D02*
X012964Y003329D01*
X013210Y003329D01*
X013332Y003329D02*
X013455Y003329D01*
X013394Y003329D02*
X013394Y002959D01*
X013455Y002959D02*
X013332Y002959D01*
X013210Y002959D02*
X012964Y002959D01*
X012964Y003144D02*
X013087Y003144D01*
X013577Y003144D02*
X013824Y003144D01*
X013824Y003206D02*
X013824Y002959D01*
X013946Y003021D02*
X013946Y003144D01*
X014131Y003144D01*
X014193Y003082D01*
X014193Y003021D01*
X014131Y002959D01*
X014007Y002959D01*
X013946Y003021D01*
X013946Y003144D02*
X014069Y003268D01*
X014193Y003329D01*
X014314Y003268D02*
X014376Y003329D01*
X014499Y003329D01*
X014561Y003268D01*
X014314Y003021D01*
X014376Y002959D01*
X014499Y002959D01*
X014561Y003021D01*
X014561Y003268D01*
X014682Y003268D02*
X014744Y003329D01*
X014867Y003329D01*
X014929Y003268D01*
X014929Y003206D01*
X014867Y003144D01*
X014929Y003082D01*
X014929Y003021D01*
X014867Y002959D01*
X014744Y002959D01*
X014682Y003021D01*
X014806Y003144D02*
X014867Y003144D01*
X015051Y003268D02*
X015112Y003329D01*
X015236Y003329D01*
X015297Y003268D01*
X015297Y003206D01*
X015051Y002959D01*
X015297Y002959D01*
X015419Y002959D02*
X015419Y003329D01*
X015604Y003329D01*
X015666Y003268D01*
X015666Y003144D01*
X015604Y003082D01*
X015419Y003082D01*
X015542Y003082D02*
X015666Y002959D01*
X014314Y003021D02*
X014314Y003268D01*
X013824Y003206D02*
X013701Y003329D01*
X013577Y003206D01*
X013577Y002959D01*
X013904Y005541D02*
X013842Y005602D01*
X013904Y005541D02*
X014027Y005541D01*
X014089Y005602D01*
X014089Y005664D01*
X014027Y005726D01*
X013966Y005726D01*
X014027Y005726D02*
X014089Y005787D01*
X014089Y005849D01*
X014027Y005911D01*
X013904Y005911D01*
X013842Y005849D01*
X014211Y005726D02*
X014457Y005726D01*
X014579Y005849D02*
X014641Y005911D01*
X014764Y005911D01*
X014826Y005849D01*
X014826Y005787D01*
X014764Y005726D01*
X014826Y005664D01*
X014826Y005602D01*
X014764Y005541D01*
X014641Y005541D01*
X014579Y005602D01*
X014702Y005726D02*
X014764Y005726D01*
X014947Y005664D02*
X015132Y005664D01*
X015194Y005726D01*
X015194Y005849D01*
X015132Y005911D01*
X014947Y005911D01*
X014947Y005541D01*
X015071Y005664D02*
X015194Y005541D01*
X014396Y005541D02*
X014396Y005911D01*
X014211Y005726D01*
X014649Y006437D02*
X014896Y006437D01*
X014957Y006498D01*
X014957Y006622D01*
X014896Y006683D01*
X014957Y006805D02*
X014587Y006805D01*
X014649Y006683D02*
X014587Y006622D01*
X014587Y006498D01*
X014649Y006437D01*
X014772Y006805D02*
X014772Y007052D01*
X014587Y007052D02*
X014957Y007052D01*
X014957Y007173D02*
X014957Y007297D01*
X014957Y007235D02*
X014587Y007235D01*
X014587Y007173D02*
X014587Y007297D01*
X014587Y007419D02*
X014587Y007604D01*
X014649Y007666D01*
X014772Y007666D01*
X014834Y007604D01*
X014834Y007419D01*
X014957Y007419D02*
X014587Y007419D01*
X014587Y007787D02*
X014957Y007787D01*
X014957Y008034D01*
X014957Y008155D02*
X014957Y008402D01*
X014957Y008524D02*
X014957Y008709D01*
X014896Y008770D01*
X014649Y008770D01*
X014587Y008709D01*
X014587Y008524D01*
X014957Y008524D01*
X014772Y008279D02*
X014772Y008155D01*
X014587Y008155D02*
X014957Y008155D01*
X014587Y008155D02*
X014587Y008402D01*
X015019Y008892D02*
X015019Y009139D01*
X014957Y009260D02*
X014957Y009507D01*
X014957Y009629D02*
X014710Y009875D01*
X014649Y009875D01*
X014587Y009814D01*
X014587Y009690D01*
X014649Y009629D01*
X014587Y009384D02*
X014957Y009384D01*
X014957Y009629D02*
X014957Y009875D01*
X014896Y009997D02*
X014649Y009997D01*
X014587Y010059D01*
X014587Y010182D01*
X014649Y010244D01*
X014896Y009997D01*
X014957Y010059D01*
X014957Y010182D01*
X014896Y010244D01*
X014649Y010244D01*
X014772Y010365D02*
X014772Y010550D01*
X014834Y010612D01*
X014896Y010612D01*
X014957Y010550D01*
X014957Y010427D01*
X014896Y010365D01*
X014772Y010365D01*
X014649Y010489D01*
X014587Y010612D01*
X013557Y010550D02*
X013557Y010427D01*
X013496Y010365D01*
X013496Y010244D02*
X013557Y010182D01*
X013557Y010059D01*
X013496Y009997D01*
X013249Y010244D01*
X013496Y010244D01*
X013372Y010365D02*
X013310Y010489D01*
X013310Y010550D01*
X013372Y010612D01*
X013496Y010612D01*
X013557Y010550D01*
X013372Y010365D02*
X013187Y010365D01*
X013187Y010612D01*
X013249Y010244D02*
X013187Y010182D01*
X013187Y010059D01*
X013249Y009997D01*
X013496Y009997D01*
X014587Y009384D02*
X014710Y009260D01*
X016184Y008590D02*
X016184Y008220D01*
X016431Y008220D01*
X016552Y008220D02*
X016676Y008220D01*
X016614Y008220D02*
X016614Y008590D01*
X016552Y008590D02*
X016676Y008590D01*
X016798Y008467D02*
X016798Y008220D01*
X016798Y008405D02*
X017045Y008405D01*
X017045Y008467D02*
X017045Y008220D01*
X017166Y008282D02*
X017228Y008220D01*
X017351Y008220D01*
X017413Y008282D01*
X017413Y008343D01*
X017351Y008405D01*
X017290Y008405D01*
X017351Y008405D02*
X017413Y008467D01*
X017413Y008529D01*
X017351Y008590D01*
X017228Y008590D01*
X017166Y008529D01*
X017045Y008467D02*
X016921Y008590D01*
X016798Y008467D01*
X016431Y008590D02*
X016184Y008590D01*
X016184Y008405D02*
X016308Y008405D01*
X017535Y008529D02*
X017596Y008590D01*
X017720Y008590D01*
X017781Y008529D01*
X017781Y008467D01*
X017535Y008220D01*
X017781Y008220D01*
X017903Y008220D02*
X018150Y008220D01*
X018026Y008220D02*
X018026Y008590D01*
X017903Y008467D01*
X018271Y008405D02*
X018271Y008282D01*
X018333Y008220D01*
X018456Y008220D01*
X018518Y008282D01*
X018518Y008343D01*
X018456Y008405D01*
X018271Y008405D01*
X018395Y008529D01*
X018518Y008590D01*
X018639Y008590D02*
X018639Y008220D01*
X018763Y008343D01*
X018886Y008220D01*
X018886Y008590D01*
X018986Y009695D02*
X018863Y009818D01*
X018925Y009818D02*
X018739Y009818D01*
X018618Y009818D02*
X018618Y009757D01*
X018556Y009695D01*
X018433Y009695D01*
X018371Y009757D01*
X018371Y009880D01*
X018556Y009880D01*
X018618Y009818D01*
X018739Y009695D02*
X018739Y010065D01*
X018925Y010065D01*
X018986Y010003D01*
X018986Y009880D01*
X018925Y009818D01*
X018618Y010065D02*
X018495Y010003D01*
X018371Y009880D01*
X018250Y009695D02*
X018003Y009695D01*
X017881Y009695D02*
X017635Y009695D01*
X017881Y009942D01*
X017881Y010003D01*
X017820Y010065D01*
X017696Y010065D01*
X017635Y010003D01*
X017513Y010003D02*
X017513Y009942D01*
X017451Y009880D01*
X017513Y009818D01*
X017513Y009757D01*
X017451Y009695D01*
X017328Y009695D01*
X017266Y009757D01*
X017145Y009695D02*
X017145Y009942D01*
X017021Y010065D01*
X016898Y009942D01*
X016898Y009695D01*
X016776Y009695D02*
X016652Y009695D01*
X016714Y009695D02*
X016714Y010065D01*
X016652Y010065D02*
X016776Y010065D01*
X016898Y009880D02*
X017145Y009880D01*
X017266Y010003D02*
X017328Y010065D01*
X017451Y010065D01*
X017513Y010003D01*
X017451Y009880D02*
X017390Y009880D01*
X018003Y009942D02*
X018126Y010065D01*
X018126Y009695D01*
X016531Y009695D02*
X016284Y009695D01*
X016284Y010065D01*
X016531Y010065D01*
X016408Y009880D02*
X016284Y009880D01*
X017558Y011324D02*
X017805Y011324D01*
X017926Y011324D02*
X018173Y011571D01*
X018173Y011633D01*
X018112Y011695D01*
X017988Y011695D01*
X017926Y011633D01*
X017682Y011695D02*
X017682Y011324D01*
X017926Y011324D02*
X018173Y011324D01*
X018295Y011386D02*
X018542Y011633D01*
X018542Y011386D01*
X018480Y011324D01*
X018356Y011324D01*
X018295Y011386D01*
X018295Y011633D01*
X018356Y011695D01*
X018480Y011695D01*
X018542Y011633D01*
X018663Y011510D02*
X018848Y011510D01*
X018910Y011448D01*
X018910Y011386D01*
X018848Y011324D01*
X018725Y011324D01*
X018663Y011386D01*
X018663Y011510D01*
X018786Y011633D01*
X018910Y011695D01*
X018848Y012849D02*
X018725Y012849D01*
X018663Y012911D01*
X018542Y012911D02*
X018480Y012849D01*
X018356Y012849D01*
X018295Y012911D01*
X018542Y013158D01*
X018542Y012911D01*
X018663Y013034D02*
X018786Y013096D01*
X018848Y013096D01*
X018910Y013034D01*
X018910Y012911D01*
X018848Y012849D01*
X018663Y013034D02*
X018663Y013219D01*
X018910Y013219D01*
X018542Y013158D02*
X018480Y013219D01*
X018356Y013219D01*
X018295Y013158D01*
X018295Y012911D01*
X018173Y012911D02*
X018112Y012849D01*
X017988Y012849D01*
X017926Y012911D01*
X017926Y012973D01*
X017988Y013034D01*
X018112Y013034D01*
X018173Y012973D01*
X018173Y012911D01*
X018112Y013034D02*
X018173Y013096D01*
X018173Y013158D01*
X018112Y013219D01*
X017988Y013219D01*
X017926Y013158D01*
X017926Y013096D01*
X017988Y013034D01*
X017805Y012911D02*
X017805Y013158D01*
X017558Y012911D01*
X017620Y012849D01*
X017743Y012849D01*
X017805Y012911D01*
X017805Y013158D02*
X017743Y013219D01*
X017620Y013219D01*
X017558Y013158D01*
X017558Y012911D01*
X017620Y014127D02*
X017558Y014189D01*
X017805Y014436D01*
X017805Y014189D01*
X017743Y014127D01*
X017620Y014127D01*
X017558Y014189D02*
X017558Y014436D01*
X017620Y014497D01*
X017743Y014497D01*
X017805Y014436D01*
X017926Y014312D02*
X018112Y014312D01*
X018173Y014251D01*
X018173Y014189D01*
X018112Y014127D01*
X017988Y014127D01*
X017926Y014189D01*
X017926Y014312D01*
X018050Y014436D01*
X018173Y014497D01*
X018295Y014436D02*
X018356Y014497D01*
X018480Y014497D01*
X018542Y014436D01*
X018295Y014189D01*
X018356Y014127D01*
X018480Y014127D01*
X018542Y014189D01*
X018542Y014436D01*
X018663Y014436D02*
X018725Y014497D01*
X018848Y014497D01*
X018910Y014436D01*
X018910Y014374D01*
X018848Y014312D01*
X018910Y014251D01*
X018910Y014189D01*
X018848Y014127D01*
X018725Y014127D01*
X018663Y014189D01*
X018786Y014312D02*
X018848Y014312D01*
X018295Y014189D02*
X018295Y014436D01*
X018308Y015432D02*
X018246Y015493D01*
X018493Y015740D01*
X018493Y015493D01*
X018431Y015432D01*
X018308Y015432D01*
X018246Y015493D02*
X018246Y015740D01*
X018308Y015802D01*
X018431Y015802D01*
X018493Y015740D01*
X018615Y015740D02*
X018676Y015802D01*
X018800Y015802D01*
X018861Y015740D01*
X018861Y015679D01*
X018615Y015432D01*
X018861Y015432D01*
X018125Y015617D02*
X017878Y015617D01*
X018063Y015802D01*
X018063Y015432D01*
X017757Y015493D02*
X017757Y015740D01*
X017510Y015493D01*
X017571Y015432D01*
X017695Y015432D01*
X017757Y015493D01*
X017757Y015740D02*
X017695Y015802D01*
X017571Y015802D01*
X017510Y015740D01*
X017510Y015493D01*
X015214Y014111D02*
X015214Y013987D01*
X015152Y013926D01*
X014967Y013926D01*
X014845Y013926D02*
X014845Y013864D01*
X014784Y013802D01*
X014660Y013802D01*
X014599Y013864D01*
X014477Y013802D02*
X014230Y013802D01*
X014477Y014049D01*
X014477Y014111D01*
X014415Y014173D01*
X014292Y014173D01*
X014230Y014111D01*
X014109Y014111D02*
X014047Y014173D01*
X013924Y014173D01*
X013862Y014111D01*
X013741Y014173D02*
X013494Y014173D01*
X013617Y014173D02*
X013617Y013802D01*
X013372Y013864D02*
X013372Y014111D01*
X013311Y014173D01*
X013187Y014173D01*
X013125Y014111D01*
X013125Y013864D01*
X013187Y013802D01*
X013311Y013802D01*
X013372Y013864D01*
X013004Y013864D02*
X012942Y013802D01*
X012819Y013802D01*
X012757Y013864D01*
X012819Y013987D02*
X012942Y013987D01*
X013004Y013926D01*
X013004Y013864D01*
X012819Y013987D02*
X012757Y014049D01*
X012757Y014111D01*
X012819Y014173D01*
X012942Y014173D01*
X013004Y014111D01*
X013862Y013802D02*
X014109Y014049D01*
X014109Y014111D01*
X014109Y013802D02*
X013862Y013802D01*
X014599Y014111D02*
X014660Y014173D01*
X014784Y014173D01*
X014845Y014111D01*
X014845Y014049D01*
X014784Y013987D01*
X014845Y013926D01*
X014784Y013987D02*
X014722Y013987D01*
X014967Y013802D02*
X014967Y014173D01*
X015152Y014173D01*
X015214Y014111D01*
X015090Y013926D02*
X015214Y013802D01*
X017558Y011571D02*
X017682Y011695D01*
X017781Y006955D02*
X017535Y006955D01*
X017535Y006770D01*
X017658Y006831D01*
X017720Y006831D01*
X017781Y006770D01*
X017781Y006646D01*
X017720Y006585D01*
X017596Y006585D01*
X017535Y006646D01*
X017413Y006646D02*
X017351Y006585D01*
X017228Y006585D01*
X017166Y006646D01*
X017045Y006585D02*
X017045Y006831D01*
X016921Y006955D01*
X016798Y006831D01*
X016798Y006585D01*
X016676Y006585D02*
X016552Y006585D01*
X016614Y006585D02*
X016614Y006955D01*
X016552Y006955D02*
X016676Y006955D01*
X016798Y006770D02*
X017045Y006770D01*
X017166Y006893D02*
X017228Y006955D01*
X017351Y006955D01*
X017413Y006893D01*
X017413Y006831D01*
X017351Y006770D01*
X017413Y006708D01*
X017413Y006646D01*
X017351Y006770D02*
X017290Y006770D01*
X017903Y006893D02*
X017965Y006955D01*
X018088Y006955D01*
X018150Y006893D01*
X018150Y006831D01*
X017903Y006585D01*
X018150Y006585D01*
X018271Y006646D02*
X018333Y006585D01*
X018456Y006585D01*
X018518Y006646D01*
X018518Y006708D01*
X018456Y006770D01*
X018333Y006770D01*
X018271Y006831D01*
X018271Y006893D01*
X018333Y006955D01*
X018456Y006955D01*
X018518Y006893D01*
X018518Y006831D01*
X018456Y006770D01*
X018333Y006770D02*
X018271Y006708D01*
X018271Y006646D01*
X018639Y006585D02*
X018639Y006955D01*
X018825Y006955D01*
X018886Y006893D01*
X018886Y006770D01*
X018825Y006708D01*
X018639Y006708D01*
X018763Y006708D02*
X018886Y006585D01*
X018970Y004945D02*
X018970Y004575D01*
X018846Y004699D01*
X018723Y004575D01*
X018723Y004945D01*
X018601Y004884D02*
X018601Y004822D01*
X018540Y004760D01*
X018416Y004760D01*
X018355Y004822D01*
X018355Y004884D01*
X018416Y004945D01*
X018540Y004945D01*
X018601Y004884D01*
X018540Y004760D02*
X018601Y004699D01*
X018601Y004637D01*
X018540Y004575D01*
X018416Y004575D01*
X018355Y004637D01*
X018355Y004699D01*
X018416Y004760D01*
X018233Y004822D02*
X018233Y004884D01*
X018171Y004945D01*
X018048Y004945D01*
X017986Y004884D01*
X017865Y004945D02*
X017618Y004945D01*
X017618Y004760D01*
X017741Y004822D01*
X017803Y004822D01*
X017865Y004760D01*
X017865Y004637D01*
X017803Y004575D01*
X017680Y004575D01*
X017618Y004637D01*
X017497Y004637D02*
X017497Y004699D01*
X017435Y004760D01*
X017373Y004760D01*
X017435Y004760D02*
X017497Y004822D01*
X017497Y004884D01*
X017435Y004945D01*
X017311Y004945D01*
X017250Y004884D01*
X017128Y004822D02*
X017128Y004575D01*
X017250Y004637D02*
X017311Y004575D01*
X017435Y004575D01*
X017497Y004637D01*
X017128Y004760D02*
X016881Y004760D01*
X016881Y004822D02*
X017005Y004945D01*
X017128Y004822D01*
X016881Y004822D02*
X016881Y004575D01*
X016759Y004575D02*
X016636Y004575D01*
X016698Y004575D02*
X016698Y004945D01*
X016759Y004945D02*
X016636Y004945D01*
X016514Y004945D02*
X016268Y004945D01*
X016268Y004575D01*
X016514Y004575D01*
X016391Y004760D02*
X016268Y004760D01*
X017986Y004575D02*
X018233Y004822D01*
X018233Y004575D02*
X017986Y004575D01*
X016431Y006585D02*
X016184Y006585D01*
X016184Y006955D01*
X016431Y006955D01*
X016308Y006770D02*
X016184Y006770D01*
X011385Y009577D02*
X011324Y009577D01*
X011447Y009700D02*
X011385Y009762D01*
X011262Y009762D01*
X011200Y009700D01*
X008535Y012344D02*
X008535Y012591D01*
X008352Y012591D02*
X008166Y012405D01*
X008352Y012220D02*
X008352Y012591D01*
X008515Y013706D02*
X008762Y014076D01*
X008884Y014076D02*
X008884Y013891D01*
X009007Y013953D01*
X009069Y013953D01*
X009131Y013891D01*
X009131Y013768D01*
X009069Y013706D01*
X008945Y013706D01*
X008884Y013768D01*
X008884Y014076D02*
X009131Y014076D01*
X009252Y014076D02*
X009314Y014138D01*
X009437Y014015D01*
X009499Y014076D01*
X009620Y013953D02*
X009744Y014076D01*
X009867Y013953D01*
X009867Y013706D01*
X009989Y013706D02*
X009989Y014076D01*
X010235Y014076D01*
X010112Y013891D02*
X009989Y013891D01*
X009867Y013891D02*
X009620Y013891D01*
X009620Y013953D02*
X009620Y013706D01*
X010002Y013607D02*
X010002Y013546D01*
X010063Y013484D01*
X010187Y013484D01*
X010249Y013422D01*
X010249Y013360D01*
X010187Y013299D01*
X010063Y013299D01*
X010002Y013360D01*
X010002Y013607D02*
X010063Y013669D01*
X010187Y013669D01*
X010249Y013607D01*
X010370Y013607D02*
X010370Y013360D01*
X010432Y013299D01*
X010555Y013299D01*
X010617Y013360D01*
X010617Y013607D01*
X010555Y013669D01*
X010432Y013669D01*
X010370Y013607D01*
X010738Y013669D02*
X010985Y013669D01*
X010862Y013669D02*
X010862Y013299D01*
X011107Y013299D02*
X011354Y013546D01*
X011354Y013607D01*
X011292Y013669D01*
X011168Y013669D01*
X011107Y013607D01*
X011107Y013299D02*
X011354Y013299D01*
X011475Y013360D02*
X011537Y013299D01*
X011660Y013299D01*
X011722Y013360D01*
X011722Y013422D01*
X011660Y013484D01*
X011598Y013484D01*
X011660Y013484D02*
X011722Y013546D01*
X011722Y013607D01*
X011660Y013669D01*
X011537Y013669D01*
X011475Y013607D01*
X011843Y013669D02*
X011843Y013299D01*
X011967Y013422D01*
X012090Y013299D01*
X012090Y013669D01*
X010475Y016896D02*
X010475Y017266D01*
X010722Y017266D01*
X010599Y017081D02*
X010475Y017081D01*
X010354Y017081D02*
X010107Y017081D01*
X010107Y017143D02*
X010231Y017266D01*
X010354Y017143D01*
X010354Y016896D01*
X010107Y016896D02*
X010107Y017143D01*
X009986Y017266D02*
X009924Y017205D01*
X009801Y017328D01*
X009739Y017266D01*
X009617Y017266D02*
X009617Y017205D01*
X009371Y016958D01*
X009371Y016896D01*
X009002Y016896D02*
X009249Y017266D01*
X009371Y017266D02*
X009617Y017266D01*
X008881Y017266D02*
X008881Y017205D01*
X008634Y016958D01*
X008634Y016896D01*
X008512Y016958D02*
X008451Y016896D01*
X008327Y016896D01*
X008266Y016958D01*
X008512Y017205D01*
X008512Y016958D01*
X008266Y016958D02*
X008266Y017205D01*
X008327Y017266D01*
X008451Y017266D01*
X008512Y017205D01*
X008634Y017266D02*
X008881Y017266D01*
X008144Y017205D02*
X008144Y017143D01*
X007897Y016896D01*
X008144Y016896D01*
X008144Y017205D02*
X008082Y017266D01*
X007959Y017266D01*
X007897Y017205D01*
X007776Y017205D02*
X007529Y016958D01*
X007591Y016896D01*
X007714Y016896D01*
X007776Y016958D01*
X007776Y017205D01*
X007714Y017266D01*
X007591Y017266D01*
X007529Y017205D01*
X007529Y016958D01*
X007891Y018646D02*
X007829Y018708D01*
X008076Y018955D01*
X008076Y018708D01*
X008014Y018646D01*
X007891Y018646D01*
X007829Y018708D02*
X007829Y018955D01*
X007891Y019016D01*
X008014Y019016D01*
X008076Y018955D01*
X008197Y018955D02*
X008259Y019016D01*
X008382Y019016D01*
X008444Y018955D01*
X008444Y018893D01*
X008197Y018646D01*
X008444Y018646D01*
X008566Y018708D02*
X008812Y018955D01*
X008812Y018708D01*
X008751Y018646D01*
X008627Y018646D01*
X008566Y018708D01*
X008566Y018955D01*
X008627Y019016D01*
X008751Y019016D01*
X008812Y018955D01*
X008934Y019016D02*
X009181Y019016D01*
X009181Y018955D01*
X008934Y018708D01*
X008934Y018646D01*
X009302Y018646D02*
X009549Y019016D01*
X009671Y018893D02*
X009794Y019016D01*
X009794Y018646D01*
X009671Y018646D02*
X009917Y018646D01*
X010039Y018708D02*
X010286Y018955D01*
X010286Y018708D01*
X010224Y018646D01*
X010101Y018646D01*
X010039Y018708D01*
X010039Y018955D01*
X010101Y019016D01*
X010224Y019016D01*
X010286Y018955D01*
X010407Y019016D02*
X010469Y019078D01*
X010592Y018955D01*
X010654Y019016D01*
X010775Y018893D02*
X010899Y019016D01*
X011022Y018893D01*
X011022Y018646D01*
X011144Y018646D02*
X011144Y019016D01*
X011391Y019016D01*
X011267Y018831D02*
X011144Y018831D01*
X011022Y018831D02*
X010775Y018831D01*
X010775Y018893D02*
X010775Y018646D01*
X012826Y018120D02*
X012826Y018058D01*
X012888Y017996D01*
X013011Y017996D01*
X013073Y017935D01*
X013073Y017873D01*
X013011Y017811D01*
X012888Y017811D01*
X012826Y017873D01*
X012826Y018120D02*
X012888Y018181D01*
X013011Y018181D01*
X013073Y018120D01*
X013194Y018120D02*
X013194Y017873D01*
X013256Y017811D01*
X013380Y017811D01*
X013441Y017873D01*
X013441Y018120D01*
X013380Y018181D01*
X013256Y018181D01*
X013194Y018120D01*
X013563Y018181D02*
X013810Y018181D01*
X013686Y018181D02*
X013686Y017811D01*
X013931Y017811D02*
X014178Y018058D01*
X014178Y018120D01*
X014116Y018181D01*
X013993Y018181D01*
X013931Y018120D01*
X013931Y017811D02*
X014178Y017811D01*
X014299Y017811D02*
X014546Y018058D01*
X014546Y018120D01*
X014484Y018181D01*
X014361Y018181D01*
X014299Y018120D01*
X014299Y017811D02*
X014546Y017811D01*
X014668Y017873D02*
X014729Y017811D01*
X014853Y017811D01*
X014914Y017873D01*
X014914Y017935D01*
X014853Y017996D01*
X014791Y017996D01*
X014853Y017996D02*
X014914Y018058D01*
X014914Y018120D01*
X014853Y018181D01*
X014729Y018181D01*
X014668Y018120D01*
X015036Y018181D02*
X015036Y017811D01*
X015159Y017935D01*
X015283Y017811D01*
X015283Y018181D01*
X007123Y012591D02*
X007061Y012529D01*
X007061Y012282D01*
X007036Y010931D02*
X007036Y008931D01*
X007036Y008936D02*
X005036Y008936D01*
X005041Y008931D02*
X005041Y010931D01*
X005036Y010931D02*
X007036Y010931D01*
X007036Y010871D02*
X005036Y010871D01*
X005036Y010811D02*
X007036Y010811D01*
X007036Y010751D02*
X005036Y010751D01*
X005036Y010691D02*
X007036Y010691D01*
X007036Y010631D02*
X005036Y010631D01*
X005036Y010571D02*
X007036Y010571D01*
X007036Y010511D02*
X005036Y010511D01*
X005101Y010931D02*
X005101Y008931D01*
X005161Y008931D02*
X005161Y010931D01*
X005221Y010931D02*
X005221Y008931D01*
X005281Y008931D02*
X005281Y010931D01*
X005341Y010931D02*
X005341Y008931D01*
X005401Y008931D02*
X005401Y010931D01*
X005461Y010931D02*
X005461Y008931D01*
X005036Y008996D02*
X007036Y008996D01*
X007036Y009056D02*
X005036Y009056D01*
X005036Y009116D02*
X007036Y009116D01*
X007036Y009176D02*
X005036Y009176D01*
X005036Y009236D02*
X007036Y009236D01*
X007036Y009296D02*
X005036Y009296D01*
X005036Y009356D02*
X007036Y009356D01*
X006976Y008931D02*
X006976Y010931D01*
X006916Y010931D02*
X006916Y008931D01*
X006856Y008931D02*
X006856Y010931D01*
X006796Y010931D02*
X006796Y008931D01*
X006736Y008931D02*
X006736Y010931D01*
X006676Y010931D02*
X006676Y008931D01*
X006616Y008931D02*
X006616Y010931D01*
X002921Y003928D02*
X002921Y003817D01*
X002921Y003593D02*
X002921Y003146D01*
X002809Y003146D02*
X003033Y003146D01*
X003239Y003146D02*
X003463Y003146D01*
X003390Y003115D02*
X003390Y002977D01*
X003351Y003146D02*
X003351Y003817D01*
X003239Y003817D01*
X002921Y003593D02*
X002809Y003593D01*
X002612Y003481D02*
X002612Y003146D01*
X002388Y003146D02*
X002388Y003481D01*
X002500Y003593D01*
X002612Y003481D01*
X002388Y003481D02*
X002277Y003593D01*
X002165Y003593D01*
X002165Y003146D01*
X002221Y002977D02*
X001945Y002838D01*
X001668Y002561D01*
X002083Y002561D01*
X002221Y002423D01*
X002221Y002284D01*
X002083Y002146D01*
X001806Y002146D01*
X001668Y002284D01*
X001668Y002561D01*
X001430Y002423D02*
X001430Y002284D01*
X001291Y002146D01*
X001014Y002146D01*
X000876Y002284D01*
X000876Y002423D01*
X001014Y002561D01*
X001291Y002561D01*
X001430Y002423D01*
X001291Y002561D02*
X001430Y002700D01*
X001430Y002838D01*
X001291Y002977D01*
X001014Y002977D01*
X000876Y002838D01*
X000876Y002700D01*
X001014Y002561D01*
X000876Y003146D02*
X000876Y003258D01*
X001323Y003705D01*
X001323Y003817D01*
X000876Y003817D01*
X001520Y003705D02*
X001520Y003258D01*
X001967Y003705D01*
X001967Y003258D01*
X001856Y003146D01*
X001632Y003146D01*
X001520Y003258D01*
X001520Y003705D02*
X001632Y003817D01*
X001856Y003817D01*
X001967Y003705D01*
X002460Y002700D02*
X002598Y002700D01*
X002736Y002561D01*
X002875Y002700D01*
X003013Y002561D01*
X003013Y002146D01*
X003251Y002146D02*
X003528Y002146D01*
X003390Y002146D02*
X003390Y002700D01*
X003251Y002700D01*
X002736Y002561D02*
X002736Y002146D01*
X002460Y002146D02*
X002460Y002700D01*
X003669Y003481D02*
X004116Y003481D01*
X004313Y003705D02*
X004313Y003817D01*
X004425Y003817D01*
X004425Y003705D01*
X004313Y003705D01*
X004004Y003817D02*
X004004Y003146D01*
X003918Y002977D02*
X003779Y002977D01*
X003918Y002977D02*
X003918Y002146D01*
X004056Y002146D02*
X003779Y002146D01*
X004307Y002561D02*
X004861Y002561D01*
X005099Y002838D02*
X005099Y002977D01*
X005238Y002977D01*
X005238Y002838D01*
X005099Y002838D01*
X004872Y003146D02*
X004760Y003146D01*
X004760Y003258D01*
X004872Y003258D01*
X004872Y003146D01*
X004723Y002977D02*
X004307Y002561D01*
X004723Y002146D02*
X004723Y002977D01*
X004313Y003146D02*
X004872Y003817D01*
X004004Y003817D02*
X003669Y003481D01*
X005099Y002146D02*
X005791Y002977D01*
X005791Y002284D02*
X005653Y002284D01*
X005653Y002146D01*
X005791Y002146D01*
X005791Y002284D01*
X007167Y003496D02*
X007167Y003866D01*
X006982Y003681D01*
X007229Y003681D01*
X007350Y003558D02*
X007350Y003805D01*
X007412Y003866D01*
X007535Y003866D01*
X007597Y003805D01*
D16*
X007565Y005711D02*
X007778Y005711D01*
X007671Y005711D02*
X007671Y006352D01*
X007565Y006352D01*
X007242Y006352D02*
X007242Y006458D01*
X007242Y006138D02*
X007135Y006138D01*
X007242Y006138D02*
X007242Y005711D01*
X007348Y005711D02*
X007135Y005711D01*
X006917Y005711D02*
X006917Y006031D01*
X006811Y006138D01*
X006704Y006031D01*
X006704Y005711D01*
X006490Y005711D02*
X006490Y006138D01*
X006597Y006138D01*
X006704Y006031D01*
X006273Y005818D02*
X006166Y005711D01*
X005953Y005711D01*
X005846Y005818D01*
X006273Y006245D01*
X006273Y005818D01*
X006273Y006245D02*
X006166Y006352D01*
X005953Y006352D01*
X005846Y006245D01*
X005846Y005818D01*
X005628Y006245D02*
X005201Y005818D01*
X005201Y005711D01*
X005628Y006245D02*
X005628Y006352D01*
X005201Y006352D01*
X007994Y006245D02*
X007994Y006138D01*
X008101Y006031D01*
X008314Y006031D01*
X008421Y005925D01*
X008421Y005818D01*
X008314Y005711D01*
X008101Y005711D01*
X007994Y005818D01*
X007994Y005925D01*
X008101Y006031D01*
X008314Y006031D02*
X008421Y006138D01*
X008421Y006245D01*
X008314Y006352D01*
X008101Y006352D01*
X007994Y006245D01*
X008639Y006245D02*
X008639Y006352D01*
X008746Y006352D01*
X008746Y006245D01*
X008639Y006245D01*
X008639Y005711D02*
X009173Y006352D01*
X009173Y005818D02*
X009066Y005818D01*
X009066Y005711D01*
X009173Y005711D01*
X009173Y005818D01*
X010756Y006854D02*
X010756Y007581D01*
X011119Y007581D01*
X011119Y006854D01*
X010756Y006854D01*
X010756Y008429D02*
X010756Y009156D01*
X011119Y009156D01*
X011119Y008429D01*
X010756Y008429D01*
X010766Y010304D02*
X011104Y010304D01*
X011557Y010307D02*
X011557Y010824D01*
X011160Y010824D01*
X010735Y010824D02*
X010319Y010824D01*
X010319Y010307D01*
X011270Y011906D02*
X011687Y011906D01*
X011167Y012409D02*
X011167Y012647D01*
X011270Y013145D02*
X011687Y013145D01*
X009908Y014431D02*
X009908Y015031D01*
X009906Y015048D01*
X009902Y015065D01*
X009895Y015081D01*
X009885Y015095D01*
X009872Y015108D01*
X009858Y015118D01*
X009842Y015125D01*
X009825Y015129D01*
X009808Y015131D01*
X009658Y015131D01*
X009608Y015081D01*
X008208Y015081D01*
X008158Y015131D01*
X008008Y015131D01*
X007991Y015129D01*
X007974Y015125D01*
X007958Y015118D01*
X007944Y015108D01*
X007931Y015095D01*
X007921Y015081D01*
X007914Y015065D01*
X007910Y015048D01*
X007908Y015031D01*
X007908Y014431D01*
X007910Y014414D01*
X007914Y014397D01*
X007921Y014381D01*
X007931Y014367D01*
X007944Y014354D01*
X007958Y014344D01*
X007974Y014337D01*
X007991Y014333D01*
X008008Y014331D01*
X008158Y014331D01*
X008208Y014381D01*
X009608Y014381D01*
X009658Y014331D01*
X009808Y014331D01*
X009825Y014333D01*
X009842Y014337D01*
X009858Y014344D01*
X009872Y014354D01*
X009885Y014367D01*
X009895Y014381D01*
X009902Y014397D01*
X009906Y014414D01*
X009908Y014431D01*
X009008Y013581D02*
X008908Y013581D01*
X008858Y013531D01*
X007958Y013531D01*
X007908Y013581D01*
X007808Y013581D01*
X007958Y012931D02*
X008858Y012931D01*
X008908Y012881D01*
X009008Y012881D01*
X007958Y012931D02*
X007908Y012881D01*
X007808Y012881D01*
X007758Y015881D02*
X007908Y015881D01*
X007958Y015931D01*
X009858Y015931D01*
X009908Y015881D01*
X010058Y015881D01*
X009858Y016731D02*
X007958Y016731D01*
X007908Y016781D01*
X007758Y016781D01*
X008258Y017581D02*
X008408Y017581D01*
X008458Y017631D01*
X010358Y017631D01*
X010408Y017581D01*
X010558Y017581D01*
X010575Y017583D01*
X010592Y017587D01*
X010608Y017594D01*
X010622Y017604D01*
X010635Y017617D01*
X010645Y017631D01*
X010652Y017647D01*
X010656Y017664D01*
X010658Y017681D01*
X010658Y018381D01*
X010656Y018398D01*
X010652Y018415D01*
X010645Y018431D01*
X010635Y018445D01*
X010622Y018458D01*
X010608Y018468D01*
X010592Y018475D01*
X010575Y018479D01*
X010558Y018481D01*
X010408Y018481D01*
X010358Y018431D01*
X008458Y018431D01*
X008408Y018481D01*
X008258Y018481D01*
X008241Y018479D01*
X008224Y018475D01*
X008208Y018468D01*
X008194Y018458D01*
X008181Y018445D01*
X008171Y018431D01*
X008164Y018415D01*
X008160Y018398D01*
X008158Y018381D01*
X008158Y017681D01*
X008160Y017664D01*
X008164Y017647D01*
X008171Y017631D01*
X008181Y017617D01*
X008194Y017604D01*
X008208Y017594D01*
X008224Y017587D01*
X008241Y017583D01*
X008258Y017581D01*
X009858Y016731D02*
X009908Y016781D01*
X010058Y016781D01*
X016077Y015694D02*
X016417Y015694D01*
X016417Y015864D01*
X016360Y015921D01*
X016247Y015921D01*
X016190Y015864D01*
X016190Y015694D01*
X016077Y015505D02*
X016417Y015505D01*
X016417Y015448D02*
X016417Y015562D01*
X016417Y015321D02*
X016360Y015321D01*
X016360Y015264D01*
X016417Y015264D01*
X016417Y015321D01*
X016190Y015128D02*
X016190Y015071D01*
X016304Y014957D01*
X016417Y014957D02*
X016190Y014957D01*
X016247Y014816D02*
X016190Y014759D01*
X016190Y014646D01*
X016247Y014589D01*
X016360Y014589D01*
X016417Y014646D01*
X016417Y014759D01*
X016304Y014816D02*
X016304Y014589D01*
X016417Y014448D02*
X016077Y014448D01*
X016190Y014448D02*
X016190Y014277D01*
X016247Y014221D01*
X016360Y014221D01*
X016417Y014277D01*
X016417Y014448D01*
X016417Y014089D02*
X016417Y013975D01*
X016417Y014032D02*
X016077Y014032D01*
X016077Y013975D01*
X016077Y013786D02*
X016020Y013786D01*
X016190Y013786D02*
X016417Y013786D01*
X016417Y013730D02*
X016417Y013843D01*
X016417Y013588D02*
X016190Y013588D01*
X016190Y013730D02*
X016190Y013786D01*
X016417Y013588D02*
X016417Y013418D01*
X016360Y013361D01*
X016190Y013361D01*
X016247Y013220D02*
X016190Y013163D01*
X016190Y012993D01*
X016077Y012993D02*
X016417Y012993D01*
X016417Y013163D01*
X016360Y013220D01*
X016247Y013220D01*
X016247Y012852D02*
X016190Y012795D01*
X016190Y012682D01*
X016247Y012625D01*
X016360Y012625D01*
X016417Y012682D01*
X016417Y012795D01*
X016360Y012852D01*
X016247Y012852D01*
X016190Y012488D02*
X016190Y012431D01*
X016304Y012318D01*
X016417Y012318D02*
X016190Y012318D01*
X016190Y012176D02*
X016190Y012006D01*
X016247Y011950D01*
X016360Y011950D01*
X016417Y012006D01*
X016417Y012176D01*
X016417Y011818D02*
X016417Y011704D01*
X016417Y011761D02*
X016190Y011761D01*
X016190Y011704D01*
X016077Y011761D02*
X016020Y011761D01*
X016247Y011563D02*
X016417Y011563D01*
X016417Y011449D02*
X016247Y011449D01*
X016190Y011506D01*
X016247Y011563D01*
X016247Y011449D02*
X016190Y011393D01*
X016190Y011336D01*
X016417Y011336D01*
X016304Y014816D02*
X016247Y014816D01*
X016077Y015448D02*
X016077Y015505D01*
X016190Y016062D02*
X016417Y016062D01*
X016304Y016062D02*
X016190Y016176D01*
X016190Y016232D01*
X016281Y017651D02*
X016283Y017724D01*
X016289Y017797D01*
X016299Y017869D01*
X016313Y017941D01*
X016330Y018012D01*
X016352Y018082D01*
X016377Y018151D01*
X016406Y018218D01*
X016438Y018283D01*
X016474Y018347D01*
X016514Y018409D01*
X016556Y018468D01*
X016602Y018525D01*
X016651Y018579D01*
X016703Y018631D01*
X016757Y018680D01*
X016814Y018726D01*
X016873Y018768D01*
X016935Y018808D01*
X016999Y018844D01*
X017064Y018876D01*
X017131Y018905D01*
X017200Y018930D01*
X017270Y018952D01*
X017341Y018969D01*
X017413Y018983D01*
X017485Y018993D01*
X017558Y018999D01*
X017631Y019001D01*
X017704Y018999D01*
X017777Y018993D01*
X017849Y018983D01*
X017921Y018969D01*
X017992Y018952D01*
X018062Y018930D01*
X018131Y018905D01*
X018198Y018876D01*
X018263Y018844D01*
X018327Y018808D01*
X018389Y018768D01*
X018448Y018726D01*
X018505Y018680D01*
X018559Y018631D01*
X018611Y018579D01*
X018660Y018525D01*
X018706Y018468D01*
X018748Y018409D01*
X018788Y018347D01*
X018824Y018283D01*
X018856Y018218D01*
X018885Y018151D01*
X018910Y018082D01*
X018932Y018012D01*
X018949Y017941D01*
X018963Y017869D01*
X018973Y017797D01*
X018979Y017724D01*
X018981Y017651D01*
X018979Y017578D01*
X018973Y017505D01*
X018963Y017433D01*
X018949Y017361D01*
X018932Y017290D01*
X018910Y017220D01*
X018885Y017151D01*
X018856Y017084D01*
X018824Y017019D01*
X018788Y016955D01*
X018748Y016893D01*
X018706Y016834D01*
X018660Y016777D01*
X018611Y016723D01*
X018559Y016671D01*
X018505Y016622D01*
X018448Y016576D01*
X018389Y016534D01*
X018327Y016494D01*
X018263Y016458D01*
X018198Y016426D01*
X018131Y016397D01*
X018062Y016372D01*
X017992Y016350D01*
X017921Y016333D01*
X017849Y016319D01*
X017777Y016309D01*
X017704Y016303D01*
X017631Y016301D01*
X017558Y016303D01*
X017485Y016309D01*
X017413Y016319D01*
X017341Y016333D01*
X017270Y016350D01*
X017200Y016372D01*
X017131Y016397D01*
X017064Y016426D01*
X016999Y016458D01*
X016935Y016494D01*
X016873Y016534D01*
X016814Y016576D01*
X016757Y016622D01*
X016703Y016671D01*
X016651Y016723D01*
X016602Y016777D01*
X016556Y016834D01*
X016514Y016893D01*
X016474Y016955D01*
X016438Y017019D01*
X016406Y017084D01*
X016377Y017151D01*
X016352Y017220D01*
X016330Y017290D01*
X016313Y017361D01*
X016299Y017433D01*
X016289Y017505D01*
X016283Y017578D01*
X016281Y017651D01*
X000536Y017848D02*
X000538Y017915D01*
X000544Y017983D01*
X000554Y018050D01*
X000568Y018116D01*
X000585Y018181D01*
X000607Y018245D01*
X000632Y018308D01*
X000661Y018369D01*
X000693Y018428D01*
X000729Y018485D01*
X000768Y018540D01*
X000810Y018593D01*
X000855Y018643D01*
X000903Y018690D01*
X000954Y018735D01*
X001007Y018776D01*
X001063Y018815D01*
X001121Y018850D01*
X001181Y018881D01*
X001242Y018909D01*
X001305Y018933D01*
X001369Y018954D01*
X001435Y018970D01*
X001501Y018983D01*
X001568Y018992D01*
X001635Y018997D01*
X001703Y018998D01*
X001770Y018995D01*
X001837Y018988D01*
X001904Y018977D01*
X001970Y018962D01*
X002035Y018944D01*
X002099Y018921D01*
X002161Y018895D01*
X002222Y018866D01*
X002280Y018832D01*
X002337Y018796D01*
X002392Y018756D01*
X002444Y018713D01*
X002493Y018667D01*
X002540Y018618D01*
X002584Y018567D01*
X002624Y018513D01*
X002662Y018457D01*
X002696Y018398D01*
X002726Y018338D01*
X002753Y018276D01*
X002777Y018213D01*
X002796Y018148D01*
X002812Y018083D01*
X002824Y018016D01*
X002832Y017949D01*
X002836Y017882D01*
X002836Y017814D01*
X002832Y017747D01*
X002824Y017680D01*
X002812Y017613D01*
X002796Y017548D01*
X002777Y017483D01*
X002753Y017420D01*
X002726Y017358D01*
X002696Y017298D01*
X002662Y017239D01*
X002624Y017183D01*
X002584Y017129D01*
X002540Y017078D01*
X002493Y017029D01*
X002444Y016983D01*
X002392Y016940D01*
X002337Y016900D01*
X002280Y016864D01*
X002222Y016830D01*
X002161Y016801D01*
X002099Y016775D01*
X002035Y016752D01*
X001970Y016734D01*
X001904Y016719D01*
X001837Y016708D01*
X001770Y016701D01*
X001703Y016698D01*
X001635Y016699D01*
X001568Y016704D01*
X001501Y016713D01*
X001435Y016726D01*
X001369Y016742D01*
X001305Y016763D01*
X001242Y016787D01*
X001181Y016815D01*
X001121Y016846D01*
X001063Y016881D01*
X001007Y016920D01*
X000954Y016961D01*
X000903Y017006D01*
X000855Y017053D01*
X000810Y017103D01*
X000768Y017156D01*
X000729Y017211D01*
X000693Y017268D01*
X000661Y017327D01*
X000632Y017388D01*
X000607Y017451D01*
X000585Y017515D01*
X000568Y017580D01*
X000554Y017646D01*
X000544Y017713D01*
X000538Y017781D01*
X000536Y017848D01*
X010505Y001135D02*
X010507Y001147D01*
X010512Y001158D01*
X010521Y001167D01*
X010532Y001172D01*
X010544Y001174D01*
X010556Y001172D01*
X010567Y001167D01*
X010576Y001158D01*
X010581Y001147D01*
X010583Y001135D01*
X010581Y001123D01*
X010576Y001112D01*
X010567Y001103D01*
X010556Y001098D01*
X010544Y001096D01*
X010532Y001098D01*
X010521Y001103D01*
X010512Y001112D01*
X010507Y001123D01*
X010505Y001135D01*
X016281Y001706D02*
X016283Y001779D01*
X016289Y001852D01*
X016299Y001924D01*
X016313Y001996D01*
X016330Y002067D01*
X016352Y002137D01*
X016377Y002206D01*
X016406Y002273D01*
X016438Y002338D01*
X016474Y002402D01*
X016514Y002464D01*
X016556Y002523D01*
X016602Y002580D01*
X016651Y002634D01*
X016703Y002686D01*
X016757Y002735D01*
X016814Y002781D01*
X016873Y002823D01*
X016935Y002863D01*
X016999Y002899D01*
X017064Y002931D01*
X017131Y002960D01*
X017200Y002985D01*
X017270Y003007D01*
X017341Y003024D01*
X017413Y003038D01*
X017485Y003048D01*
X017558Y003054D01*
X017631Y003056D01*
X017704Y003054D01*
X017777Y003048D01*
X017849Y003038D01*
X017921Y003024D01*
X017992Y003007D01*
X018062Y002985D01*
X018131Y002960D01*
X018198Y002931D01*
X018263Y002899D01*
X018327Y002863D01*
X018389Y002823D01*
X018448Y002781D01*
X018505Y002735D01*
X018559Y002686D01*
X018611Y002634D01*
X018660Y002580D01*
X018706Y002523D01*
X018748Y002464D01*
X018788Y002402D01*
X018824Y002338D01*
X018856Y002273D01*
X018885Y002206D01*
X018910Y002137D01*
X018932Y002067D01*
X018949Y001996D01*
X018963Y001924D01*
X018973Y001852D01*
X018979Y001779D01*
X018981Y001706D01*
X018979Y001633D01*
X018973Y001560D01*
X018963Y001488D01*
X018949Y001416D01*
X018932Y001345D01*
X018910Y001275D01*
X018885Y001206D01*
X018856Y001139D01*
X018824Y001074D01*
X018788Y001010D01*
X018748Y000948D01*
X018706Y000889D01*
X018660Y000832D01*
X018611Y000778D01*
X018559Y000726D01*
X018505Y000677D01*
X018448Y000631D01*
X018389Y000589D01*
X018327Y000549D01*
X018263Y000513D01*
X018198Y000481D01*
X018131Y000452D01*
X018062Y000427D01*
X017992Y000405D01*
X017921Y000388D01*
X017849Y000374D01*
X017777Y000364D01*
X017704Y000358D01*
X017631Y000356D01*
X017558Y000358D01*
X017485Y000364D01*
X017413Y000374D01*
X017341Y000388D01*
X017270Y000405D01*
X017200Y000427D01*
X017131Y000452D01*
X017064Y000481D01*
X016999Y000513D01*
X016935Y000549D01*
X016873Y000589D01*
X016814Y000631D01*
X016757Y000677D01*
X016703Y000726D01*
X016651Y000778D01*
X016602Y000832D01*
X016556Y000889D01*
X016514Y000948D01*
X016474Y001010D01*
X016438Y001074D01*
X016406Y001139D01*
X016377Y001206D01*
X016352Y001275D01*
X016330Y001345D01*
X016313Y001416D01*
X016299Y001488D01*
X016289Y001560D01*
X016283Y001633D01*
X016281Y001706D01*
D17*
X009131Y006556D02*
X008999Y006556D01*
X008999Y006688D01*
X009131Y006688D01*
X009131Y006556D01*
X008472Y006556D02*
X009131Y007347D01*
X008604Y007347D02*
X008604Y007215D01*
X008472Y007215D01*
X008472Y007347D01*
X008604Y007347D01*
X008207Y007215D02*
X008207Y007083D01*
X008075Y006951D01*
X007812Y006951D01*
X007680Y007083D01*
X007680Y007215D01*
X007812Y007347D01*
X008075Y007347D01*
X008207Y007215D01*
X008075Y006951D02*
X008207Y006820D01*
X008207Y006688D01*
X008075Y006556D01*
X007812Y006556D01*
X007680Y006688D01*
X007680Y006820D01*
X007812Y006951D01*
X007416Y006556D02*
X007152Y006556D01*
X007284Y006556D02*
X007284Y007347D01*
X007152Y007347D01*
X006756Y007347D02*
X006756Y007478D01*
X006756Y007083D02*
X006624Y007083D01*
X006756Y007083D02*
X006756Y006556D01*
X006624Y006556D02*
X006888Y006556D01*
X006359Y006556D02*
X006359Y006951D01*
X006228Y007083D01*
X006096Y006951D01*
X006096Y006556D01*
X005832Y006556D02*
X005832Y007083D01*
X005964Y007083D01*
X006096Y006951D01*
X005568Y006820D02*
X005436Y006951D01*
X005041Y006951D01*
X005041Y006688D01*
X005172Y006556D01*
X005436Y006556D01*
X005568Y006688D01*
X005568Y006820D01*
X005304Y007215D02*
X005041Y006951D01*
X004776Y006820D02*
X004776Y006688D01*
X004644Y006556D01*
X004380Y006556D01*
X004249Y006688D01*
X004249Y006820D01*
X004380Y006951D01*
X004644Y006951D01*
X004776Y006820D01*
X004644Y006951D02*
X004776Y007083D01*
X004776Y007215D01*
X004644Y007347D01*
X004380Y007347D01*
X004249Y007215D01*
X004249Y007083D01*
X004380Y006951D01*
X005304Y007215D02*
X005568Y007347D01*
D18*
X005564Y007671D02*
X005564Y008131D01*
X005718Y008285D01*
X005871Y008131D01*
X005871Y007671D01*
X006178Y007671D02*
X006485Y007671D01*
X006331Y007671D02*
X006331Y008285D01*
X006178Y008285D01*
X006331Y008592D02*
X006331Y008745D01*
X006792Y008592D02*
X006945Y008592D01*
X006945Y007671D01*
X006792Y007671D02*
X007099Y007671D01*
X007406Y007824D02*
X007406Y007978D01*
X007559Y008131D01*
X007866Y008131D01*
X008019Y007978D01*
X008019Y007824D01*
X007866Y007671D01*
X007559Y007671D01*
X007406Y007824D01*
X007559Y008131D02*
X007406Y008285D01*
X007406Y008438D01*
X007559Y008592D01*
X007866Y008592D01*
X008019Y008438D01*
X008019Y008285D01*
X007866Y008131D01*
X008326Y008438D02*
X008326Y008592D01*
X008480Y008592D01*
X008480Y008438D01*
X008326Y008438D01*
X008940Y007824D02*
X009094Y007824D01*
X009094Y007671D01*
X008940Y007671D01*
X008940Y007824D01*
X008326Y007671D02*
X009094Y008592D01*
X005564Y008131D02*
X005411Y008285D01*
X005257Y008285D01*
X005257Y007671D01*
X004950Y007824D02*
X004797Y007671D01*
X004490Y007671D01*
X004336Y007824D01*
X004950Y008438D01*
X004950Y007824D01*
X004336Y007824D02*
X004336Y008438D01*
X004490Y008592D01*
X004797Y008592D01*
X004950Y008438D01*
X004030Y008438D02*
X004030Y007824D01*
X003876Y007671D01*
X003569Y007671D01*
X003416Y007824D01*
X004030Y008438D01*
X003876Y008592D01*
X003569Y008592D01*
X003416Y008438D01*
X003416Y007824D01*
X003109Y007671D02*
X002495Y007671D01*
X002802Y007671D02*
X002802Y008592D01*
X002495Y008285D01*
X001095Y017848D02*
X001097Y017896D01*
X001103Y017944D01*
X001113Y017991D01*
X001126Y018037D01*
X001144Y018082D01*
X001164Y018126D01*
X001189Y018168D01*
X001217Y018207D01*
X001247Y018244D01*
X001281Y018278D01*
X001318Y018310D01*
X001356Y018339D01*
X001397Y018364D01*
X001440Y018386D01*
X001485Y018404D01*
X001531Y018418D01*
X001578Y018429D01*
X001626Y018436D01*
X001674Y018439D01*
X001722Y018438D01*
X001770Y018433D01*
X001818Y018424D01*
X001864Y018412D01*
X001909Y018395D01*
X001953Y018375D01*
X001995Y018352D01*
X002035Y018325D01*
X002073Y018295D01*
X002108Y018262D01*
X002140Y018226D01*
X002170Y018188D01*
X002196Y018147D01*
X002218Y018104D01*
X002238Y018060D01*
X002253Y018015D01*
X002265Y017968D01*
X002273Y017920D01*
X002277Y017872D01*
X002277Y017824D01*
X002273Y017776D01*
X002265Y017728D01*
X002253Y017681D01*
X002238Y017636D01*
X002218Y017592D01*
X002196Y017549D01*
X002170Y017508D01*
X002140Y017470D01*
X002108Y017434D01*
X002073Y017401D01*
X002035Y017371D01*
X001995Y017344D01*
X001953Y017321D01*
X001909Y017301D01*
X001864Y017284D01*
X001818Y017272D01*
X001770Y017263D01*
X001722Y017258D01*
X001674Y017257D01*
X001626Y017260D01*
X001578Y017267D01*
X001531Y017278D01*
X001485Y017292D01*
X001440Y017310D01*
X001397Y017332D01*
X001356Y017357D01*
X001318Y017386D01*
X001281Y017418D01*
X001247Y017452D01*
X001217Y017489D01*
X001189Y017528D01*
X001164Y017570D01*
X001144Y017614D01*
X001126Y017659D01*
X001113Y017705D01*
X001103Y017752D01*
X001097Y017800D01*
X001095Y017848D01*
X017001Y017651D02*
X017003Y017701D01*
X017009Y017751D01*
X017019Y017800D01*
X017033Y017848D01*
X017050Y017895D01*
X017071Y017940D01*
X017096Y017984D01*
X017124Y018025D01*
X017156Y018064D01*
X017190Y018101D01*
X017227Y018135D01*
X017267Y018165D01*
X017309Y018192D01*
X017353Y018216D01*
X017399Y018237D01*
X017446Y018253D01*
X017494Y018266D01*
X017544Y018275D01*
X017593Y018280D01*
X017644Y018281D01*
X017694Y018278D01*
X017743Y018271D01*
X017792Y018260D01*
X017840Y018245D01*
X017886Y018227D01*
X017931Y018205D01*
X017974Y018179D01*
X018015Y018150D01*
X018054Y018118D01*
X018090Y018083D01*
X018122Y018045D01*
X018152Y018005D01*
X018179Y017962D01*
X018202Y017918D01*
X018221Y017872D01*
X018237Y017824D01*
X018249Y017775D01*
X018257Y017726D01*
X018261Y017676D01*
X018261Y017626D01*
X018257Y017576D01*
X018249Y017527D01*
X018237Y017478D01*
X018221Y017430D01*
X018202Y017384D01*
X018179Y017340D01*
X018152Y017297D01*
X018122Y017257D01*
X018090Y017219D01*
X018054Y017184D01*
X018015Y017152D01*
X017974Y017123D01*
X017931Y017097D01*
X017886Y017075D01*
X017840Y017057D01*
X017792Y017042D01*
X017743Y017031D01*
X017694Y017024D01*
X017644Y017021D01*
X017593Y017022D01*
X017544Y017027D01*
X017494Y017036D01*
X017446Y017049D01*
X017399Y017065D01*
X017353Y017086D01*
X017309Y017110D01*
X017267Y017137D01*
X017227Y017167D01*
X017190Y017201D01*
X017156Y017238D01*
X017124Y017277D01*
X017096Y017318D01*
X017071Y017362D01*
X017050Y017407D01*
X017033Y017454D01*
X017019Y017502D01*
X017009Y017551D01*
X017003Y017601D01*
X017001Y017651D01*
X016962Y001706D02*
X016964Y001757D01*
X016970Y001808D01*
X016980Y001858D01*
X016993Y001908D01*
X017011Y001956D01*
X017031Y002003D01*
X017056Y002048D01*
X017084Y002091D01*
X017115Y002132D01*
X017149Y002170D01*
X017186Y002205D01*
X017225Y002238D01*
X017267Y002268D01*
X017311Y002294D01*
X017357Y002316D01*
X017405Y002336D01*
X017454Y002351D01*
X017504Y002363D01*
X017554Y002371D01*
X017605Y002375D01*
X017657Y002375D01*
X017708Y002371D01*
X017758Y002363D01*
X017808Y002351D01*
X017857Y002336D01*
X017905Y002316D01*
X017951Y002294D01*
X017995Y002268D01*
X018037Y002238D01*
X018076Y002205D01*
X018113Y002170D01*
X018147Y002132D01*
X018178Y002091D01*
X018206Y002048D01*
X018231Y002003D01*
X018251Y001956D01*
X018269Y001908D01*
X018282Y001858D01*
X018292Y001808D01*
X018298Y001757D01*
X018300Y001706D01*
X018298Y001655D01*
X018292Y001604D01*
X018282Y001554D01*
X018269Y001504D01*
X018251Y001456D01*
X018231Y001409D01*
X018206Y001364D01*
X018178Y001321D01*
X018147Y001280D01*
X018113Y001242D01*
X018076Y001207D01*
X018037Y001174D01*
X017995Y001144D01*
X017951Y001118D01*
X017905Y001096D01*
X017857Y001076D01*
X017808Y001061D01*
X017758Y001049D01*
X017708Y001041D01*
X017657Y001037D01*
X017605Y001037D01*
X017554Y001041D01*
X017504Y001049D01*
X017454Y001061D01*
X017405Y001076D01*
X017357Y001096D01*
X017311Y001118D01*
X017267Y001144D01*
X017225Y001174D01*
X017186Y001207D01*
X017149Y001242D01*
X017115Y001280D01*
X017084Y001321D01*
X017056Y001364D01*
X017031Y001409D01*
X017011Y001456D01*
X016993Y001504D01*
X016980Y001554D01*
X016970Y001604D01*
X016964Y001655D01*
X016962Y001706D01*
D19*
X017001Y001706D02*
X017003Y001756D01*
X017009Y001806D01*
X017019Y001855D01*
X017033Y001903D01*
X017050Y001950D01*
X017071Y001995D01*
X017096Y002039D01*
X017124Y002080D01*
X017156Y002119D01*
X017190Y002156D01*
X017227Y002190D01*
X017267Y002220D01*
X017309Y002247D01*
X017353Y002271D01*
X017399Y002292D01*
X017446Y002308D01*
X017494Y002321D01*
X017544Y002330D01*
X017593Y002335D01*
X017644Y002336D01*
X017694Y002333D01*
X017743Y002326D01*
X017792Y002315D01*
X017840Y002300D01*
X017886Y002282D01*
X017931Y002260D01*
X017974Y002234D01*
X018015Y002205D01*
X018054Y002173D01*
X018090Y002138D01*
X018122Y002100D01*
X018152Y002060D01*
X018179Y002017D01*
X018202Y001973D01*
X018221Y001927D01*
X018237Y001879D01*
X018249Y001830D01*
X018257Y001781D01*
X018261Y001731D01*
X018261Y001681D01*
X018257Y001631D01*
X018249Y001582D01*
X018237Y001533D01*
X018221Y001485D01*
X018202Y001439D01*
X018179Y001395D01*
X018152Y001352D01*
X018122Y001312D01*
X018090Y001274D01*
X018054Y001239D01*
X018015Y001207D01*
X017974Y001178D01*
X017931Y001152D01*
X017886Y001130D01*
X017840Y001112D01*
X017792Y001097D01*
X017743Y001086D01*
X017694Y001079D01*
X017644Y001076D01*
X017593Y001077D01*
X017544Y001082D01*
X017494Y001091D01*
X017446Y001104D01*
X017399Y001120D01*
X017353Y001141D01*
X017309Y001165D01*
X017267Y001192D01*
X017227Y001222D01*
X017190Y001256D01*
X017156Y001293D01*
X017124Y001332D01*
X017096Y001373D01*
X017071Y001417D01*
X017050Y001462D01*
X017033Y001509D01*
X017019Y001557D01*
X017009Y001606D01*
X017003Y001656D01*
X017001Y001706D01*
X001550Y008631D02*
X001530Y008631D01*
X001530Y008651D01*
X001550Y008651D01*
X001550Y008631D01*
X001450Y008631D02*
X001550Y008751D01*
X001470Y008751D02*
X001470Y008731D01*
X001450Y008731D01*
X001450Y008751D01*
X001470Y008751D01*
X001400Y008751D02*
X001340Y008691D01*
X001420Y008691D01*
X001400Y008631D02*
X001400Y008751D01*
X001286Y008751D02*
X001286Y008631D01*
X001266Y008631D02*
X001306Y008631D01*
X001232Y008631D02*
X001192Y008631D01*
X001212Y008631D02*
X001212Y008711D01*
X001192Y008711D01*
X001162Y008691D02*
X001162Y008631D01*
X001122Y008631D02*
X001122Y008691D01*
X001142Y008711D01*
X001162Y008691D01*
X001122Y008691D02*
X001102Y008711D01*
X001082Y008711D01*
X001082Y008631D01*
X001051Y008631D02*
X000971Y008631D01*
X001051Y008711D01*
X001051Y008731D01*
X001031Y008751D01*
X000991Y008751D01*
X000971Y008731D01*
X000901Y008751D02*
X000901Y008631D01*
X000861Y008631D02*
X000941Y008631D01*
X000861Y008711D02*
X000901Y008751D01*
X001212Y008771D02*
X001212Y008751D01*
X001266Y008751D02*
X001286Y008751D01*
X001135Y017848D02*
X001137Y017895D01*
X001143Y017941D01*
X001153Y017987D01*
X001166Y018032D01*
X001184Y018075D01*
X001205Y018117D01*
X001229Y018157D01*
X001257Y018194D01*
X001288Y018229D01*
X001322Y018262D01*
X001358Y018291D01*
X001397Y018317D01*
X001438Y018340D01*
X001481Y018359D01*
X001525Y018375D01*
X001570Y018387D01*
X001616Y018395D01*
X001663Y018399D01*
X001709Y018399D01*
X001756Y018395D01*
X001802Y018387D01*
X001847Y018375D01*
X001891Y018359D01*
X001934Y018340D01*
X001975Y018317D01*
X002014Y018291D01*
X002050Y018262D01*
X002084Y018229D01*
X002115Y018194D01*
X002143Y018157D01*
X002167Y018117D01*
X002188Y018075D01*
X002206Y018032D01*
X002219Y017987D01*
X002229Y017941D01*
X002235Y017895D01*
X002237Y017848D01*
X002235Y017801D01*
X002229Y017755D01*
X002219Y017709D01*
X002206Y017664D01*
X002188Y017621D01*
X002167Y017579D01*
X002143Y017539D01*
X002115Y017502D01*
X002084Y017467D01*
X002050Y017434D01*
X002014Y017405D01*
X001975Y017379D01*
X001934Y017356D01*
X001891Y017337D01*
X001847Y017321D01*
X001802Y017309D01*
X001756Y017301D01*
X001709Y017297D01*
X001663Y017297D01*
X001616Y017301D01*
X001570Y017309D01*
X001525Y017321D01*
X001481Y017337D01*
X001438Y017356D01*
X001397Y017379D01*
X001358Y017405D01*
X001322Y017434D01*
X001288Y017467D01*
X001257Y017502D01*
X001229Y017539D01*
X001205Y017579D01*
X001184Y017621D01*
X001166Y017664D01*
X001153Y017709D01*
X001143Y017755D01*
X001137Y017801D01*
X001135Y017848D01*
X017040Y017651D02*
X017042Y017699D01*
X017048Y017747D01*
X017058Y017794D01*
X017071Y017840D01*
X017089Y017885D01*
X017109Y017929D01*
X017134Y017971D01*
X017162Y018010D01*
X017192Y018047D01*
X017226Y018081D01*
X017263Y018113D01*
X017301Y018142D01*
X017342Y018167D01*
X017385Y018189D01*
X017430Y018207D01*
X017476Y018221D01*
X017523Y018232D01*
X017571Y018239D01*
X017619Y018242D01*
X017667Y018241D01*
X017715Y018236D01*
X017763Y018227D01*
X017809Y018215D01*
X017854Y018198D01*
X017898Y018178D01*
X017940Y018155D01*
X017980Y018128D01*
X018018Y018098D01*
X018053Y018065D01*
X018085Y018029D01*
X018115Y017991D01*
X018141Y017950D01*
X018163Y017907D01*
X018183Y017863D01*
X018198Y017818D01*
X018210Y017771D01*
X018218Y017723D01*
X018222Y017675D01*
X018222Y017627D01*
X018218Y017579D01*
X018210Y017531D01*
X018198Y017484D01*
X018183Y017439D01*
X018163Y017395D01*
X018141Y017352D01*
X018115Y017311D01*
X018085Y017273D01*
X018053Y017237D01*
X018018Y017204D01*
X017980Y017174D01*
X017940Y017147D01*
X017898Y017124D01*
X017854Y017104D01*
X017809Y017087D01*
X017763Y017075D01*
X017715Y017066D01*
X017667Y017061D01*
X017619Y017060D01*
X017571Y017063D01*
X017523Y017070D01*
X017476Y017081D01*
X017430Y017095D01*
X017385Y017113D01*
X017342Y017135D01*
X017301Y017160D01*
X017263Y017189D01*
X017226Y017221D01*
X017192Y017255D01*
X017162Y017292D01*
X017134Y017331D01*
X017109Y017373D01*
X017089Y017417D01*
X017071Y017462D01*
X017058Y017508D01*
X017048Y017555D01*
X017042Y017603D01*
X017040Y017651D01*
D20*
X009983Y014731D03*
X007833Y014731D03*
D21*
X007988Y018031D03*
X010828Y018031D03*
D22*
X012696Y016823D02*
X014786Y016823D01*
X014743Y016823D01*
X014786Y016823D02*
X015334Y016823D01*
X015334Y015406D01*
X015305Y015406D02*
X014330Y015406D01*
X014300Y015406D02*
X012724Y015406D01*
X012696Y015406D02*
X012696Y016823D01*
X012637Y012903D02*
X014727Y012903D01*
X014684Y012903D01*
X014727Y012903D02*
X015275Y012903D01*
X015275Y011485D01*
X015246Y011485D02*
X014271Y011485D01*
X014241Y011485D02*
X012665Y011485D01*
X012637Y011485D02*
X012637Y012903D01*
X011134Y006035D02*
X011134Y005448D01*
X010741Y005741D01*
X011134Y006035D01*
X010741Y006035D02*
X010741Y005741D01*
X010741Y005448D01*
D23*
X007936Y011745D02*
X007836Y011745D01*
M02*
