G75*
G70*
%OFA0B0*%
%FSLAX24Y24*%
%IPPOS*%
%LPD*%
%AMOC8*
5,1,8,0,0,1.08239X$1,22.5*
%
%ADD10C,0.0004*%
%ADD11C,0.0000*%
%ADD12C,0.1142*%
%ADD13C,0.1221*%
%ADD14C,0.1300*%
%ADD15OC8,0.0700*%
%ADD16OC8,0.0560*%
%ADD17R,0.0355X0.0355*%
%ADD18R,0.0512X0.0512*%
%ADD19R,0.0631X0.0631*%
%ADD20R,0.0316X0.0394*%
%ADD21R,0.0473X0.0434*%
%ADD22R,0.0552X0.0631*%
%ADD23R,0.0670X0.0749*%
%ADD24R,0.0808X0.0631*%
%ADD25R,0.0808X0.1024*%
%ADD26R,0.1044X0.1024*%
%ADD27R,0.1044X0.1103*%
%ADD28R,0.0886X0.0749*%
%ADD29R,0.0257X0.0512*%
%ADD30R,0.0276X0.0316*%
%ADD31R,0.0591X0.1142*%
%ADD32R,0.0591X0.0512*%
%ADD33R,0.0552X0.0552*%
%ADD34R,0.1457X0.0552*%
%ADD35R,0.0788X0.0788*%
%ADD36R,0.0473X0.0788*%
%ADD37R,0.2678X0.0788*%
%ADD38R,0.0257X0.0276*%
%ADD39R,0.0611X0.0394*%
%ADD40R,0.0611X0.0867*%
%ADD41R,0.0512X0.0316*%
%ADD42R,0.0276X0.0276*%
%ADD43R,0.0276X0.0355*%
%ADD44OC8,0.1700*%
%ADD45OC8,0.1542*%
D10*
X002079Y000131D02*
X004048Y000131D01*
X017434Y000131D01*
X017528Y000133D01*
X017621Y000140D01*
X017714Y000151D01*
X017807Y000167D01*
X017898Y000187D01*
X017989Y000211D01*
X018078Y000239D01*
X018166Y000272D01*
X018252Y000309D01*
X018336Y000350D01*
X018419Y000395D01*
X018499Y000444D01*
X018576Y000496D01*
X018651Y000552D01*
X018723Y000612D01*
X018793Y000675D01*
X018859Y000741D01*
X018922Y000811D01*
X018982Y000883D01*
X019038Y000958D01*
X019090Y001035D01*
X019139Y001116D01*
X019184Y001198D01*
X019225Y001282D01*
X019262Y001368D01*
X019295Y001456D01*
X019323Y001545D01*
X019347Y001636D01*
X019367Y001727D01*
X019383Y001820D01*
X019394Y001913D01*
X019401Y002006D01*
X019403Y002100D01*
X019402Y002100D02*
X019402Y008399D01*
X019402Y017454D01*
X019403Y017454D02*
X019401Y017548D01*
X019394Y017641D01*
X019383Y017734D01*
X019367Y017827D01*
X019347Y017918D01*
X019323Y018009D01*
X019295Y018098D01*
X019262Y018186D01*
X019225Y018272D01*
X019184Y018356D01*
X019139Y018438D01*
X019090Y018519D01*
X019038Y018596D01*
X018982Y018671D01*
X018922Y018743D01*
X018859Y018813D01*
X018793Y018879D01*
X018723Y018942D01*
X018651Y019002D01*
X018576Y019058D01*
X018499Y019110D01*
X018418Y019159D01*
X018336Y019204D01*
X018252Y019245D01*
X018166Y019282D01*
X018078Y019315D01*
X017989Y019343D01*
X017898Y019367D01*
X017807Y019387D01*
X017714Y019403D01*
X017621Y019414D01*
X017528Y019421D01*
X017434Y019423D01*
X017434Y019422D02*
X015859Y019422D01*
X002079Y019422D01*
X002079Y019423D02*
X001985Y019421D01*
X001892Y019414D01*
X001799Y019403D01*
X001706Y019387D01*
X001615Y019367D01*
X001524Y019343D01*
X001435Y019315D01*
X001347Y019282D01*
X001261Y019245D01*
X001177Y019204D01*
X001094Y019159D01*
X001014Y019110D01*
X000937Y019058D01*
X000862Y019002D01*
X000790Y018942D01*
X000720Y018879D01*
X000654Y018813D01*
X000591Y018743D01*
X000531Y018671D01*
X000475Y018596D01*
X000423Y018519D01*
X000374Y018439D01*
X000329Y018356D01*
X000288Y018272D01*
X000251Y018186D01*
X000218Y018098D01*
X000190Y018009D01*
X000166Y017918D01*
X000146Y017827D01*
X000130Y017734D01*
X000119Y017641D01*
X000112Y017548D01*
X000110Y017454D01*
X000111Y017454D02*
X000111Y012336D01*
X000111Y002100D01*
X000110Y002100D02*
X000112Y002006D01*
X000119Y001913D01*
X000130Y001820D01*
X000146Y001727D01*
X000166Y001636D01*
X000190Y001545D01*
X000218Y001456D01*
X000251Y001368D01*
X000288Y001282D01*
X000329Y001198D01*
X000374Y001116D01*
X000423Y001035D01*
X000475Y000958D01*
X000531Y000883D01*
X000591Y000811D01*
X000654Y000741D01*
X000720Y000675D01*
X000790Y000612D01*
X000862Y000552D01*
X000937Y000496D01*
X001014Y000444D01*
X001094Y000395D01*
X001177Y000350D01*
X001261Y000309D01*
X001347Y000272D01*
X001435Y000239D01*
X001524Y000211D01*
X001615Y000187D01*
X001706Y000167D01*
X001799Y000151D01*
X001892Y000140D01*
X001985Y000133D01*
X002079Y000131D01*
D11*
X017001Y001706D02*
X017003Y001756D01*
X017009Y001806D01*
X017019Y001855D01*
X017033Y001903D01*
X017050Y001950D01*
X017071Y001995D01*
X017096Y002039D01*
X017124Y002080D01*
X017156Y002119D01*
X017190Y002156D01*
X017227Y002190D01*
X017267Y002220D01*
X017309Y002247D01*
X017353Y002271D01*
X017399Y002292D01*
X017446Y002308D01*
X017494Y002321D01*
X017544Y002330D01*
X017593Y002335D01*
X017644Y002336D01*
X017694Y002333D01*
X017743Y002326D01*
X017792Y002315D01*
X017840Y002300D01*
X017886Y002282D01*
X017931Y002260D01*
X017974Y002234D01*
X018015Y002205D01*
X018054Y002173D01*
X018090Y002138D01*
X018122Y002100D01*
X018152Y002060D01*
X018179Y002017D01*
X018202Y001973D01*
X018221Y001927D01*
X018237Y001879D01*
X018249Y001830D01*
X018257Y001781D01*
X018261Y001731D01*
X018261Y001681D01*
X018257Y001631D01*
X018249Y001582D01*
X018237Y001533D01*
X018221Y001485D01*
X018202Y001439D01*
X018179Y001395D01*
X018152Y001352D01*
X018122Y001312D01*
X018090Y001274D01*
X018054Y001239D01*
X018015Y001207D01*
X017974Y001178D01*
X017931Y001152D01*
X017886Y001130D01*
X017840Y001112D01*
X017792Y001097D01*
X017743Y001086D01*
X017694Y001079D01*
X017644Y001076D01*
X017593Y001077D01*
X017544Y001082D01*
X017494Y001091D01*
X017446Y001104D01*
X017399Y001120D01*
X017353Y001141D01*
X017309Y001165D01*
X017267Y001192D01*
X017227Y001222D01*
X017190Y001256D01*
X017156Y001293D01*
X017124Y001332D01*
X017096Y001373D01*
X017071Y001417D01*
X017050Y001462D01*
X017033Y001509D01*
X017019Y001557D01*
X017009Y001606D01*
X017003Y001656D01*
X017001Y001706D01*
X017040Y017651D02*
X017042Y017699D01*
X017048Y017747D01*
X017058Y017794D01*
X017071Y017840D01*
X017089Y017885D01*
X017109Y017929D01*
X017134Y017971D01*
X017162Y018010D01*
X017192Y018047D01*
X017226Y018081D01*
X017263Y018113D01*
X017301Y018142D01*
X017342Y018167D01*
X017385Y018189D01*
X017430Y018207D01*
X017476Y018221D01*
X017523Y018232D01*
X017571Y018239D01*
X017619Y018242D01*
X017667Y018241D01*
X017715Y018236D01*
X017763Y018227D01*
X017809Y018215D01*
X017854Y018198D01*
X017898Y018178D01*
X017940Y018155D01*
X017980Y018128D01*
X018018Y018098D01*
X018053Y018065D01*
X018085Y018029D01*
X018115Y017991D01*
X018141Y017950D01*
X018163Y017907D01*
X018183Y017863D01*
X018198Y017818D01*
X018210Y017771D01*
X018218Y017723D01*
X018222Y017675D01*
X018222Y017627D01*
X018218Y017579D01*
X018210Y017531D01*
X018198Y017484D01*
X018183Y017439D01*
X018163Y017395D01*
X018141Y017352D01*
X018115Y017311D01*
X018085Y017273D01*
X018053Y017237D01*
X018018Y017204D01*
X017980Y017174D01*
X017940Y017147D01*
X017898Y017124D01*
X017854Y017104D01*
X017809Y017087D01*
X017763Y017075D01*
X017715Y017066D01*
X017667Y017061D01*
X017619Y017060D01*
X017571Y017063D01*
X017523Y017070D01*
X017476Y017081D01*
X017430Y017095D01*
X017385Y017113D01*
X017342Y017135D01*
X017301Y017160D01*
X017263Y017189D01*
X017226Y017221D01*
X017192Y017255D01*
X017162Y017292D01*
X017134Y017331D01*
X017109Y017373D01*
X017089Y017417D01*
X017071Y017462D01*
X017058Y017508D01*
X017048Y017555D01*
X017042Y017603D01*
X017040Y017651D01*
X001135Y017848D02*
X001137Y017895D01*
X001143Y017941D01*
X001153Y017987D01*
X001166Y018032D01*
X001184Y018075D01*
X001205Y018117D01*
X001229Y018157D01*
X001257Y018194D01*
X001288Y018229D01*
X001322Y018262D01*
X001358Y018291D01*
X001397Y018317D01*
X001438Y018340D01*
X001481Y018359D01*
X001525Y018375D01*
X001570Y018387D01*
X001616Y018395D01*
X001663Y018399D01*
X001709Y018399D01*
X001756Y018395D01*
X001802Y018387D01*
X001847Y018375D01*
X001891Y018359D01*
X001934Y018340D01*
X001975Y018317D01*
X002014Y018291D01*
X002050Y018262D01*
X002084Y018229D01*
X002115Y018194D01*
X002143Y018157D01*
X002167Y018117D01*
X002188Y018075D01*
X002206Y018032D01*
X002219Y017987D01*
X002229Y017941D01*
X002235Y017895D01*
X002237Y017848D01*
X002235Y017801D01*
X002229Y017755D01*
X002219Y017709D01*
X002206Y017664D01*
X002188Y017621D01*
X002167Y017579D01*
X002143Y017539D01*
X002115Y017502D01*
X002084Y017467D01*
X002050Y017434D01*
X002014Y017405D01*
X001975Y017379D01*
X001934Y017356D01*
X001891Y017337D01*
X001847Y017321D01*
X001802Y017309D01*
X001756Y017301D01*
X001709Y017297D01*
X001663Y017297D01*
X001616Y017301D01*
X001570Y017309D01*
X001525Y017321D01*
X001481Y017337D01*
X001438Y017356D01*
X001397Y017379D01*
X001358Y017405D01*
X001322Y017434D01*
X001288Y017467D01*
X001257Y017502D01*
X001229Y017539D01*
X001205Y017579D01*
X001184Y017621D01*
X001166Y017664D01*
X001153Y017709D01*
X001143Y017755D01*
X001137Y017801D01*
X001135Y017848D01*
D12*
X001686Y017848D03*
D13*
X017631Y017651D03*
D14*
X017631Y001706D03*
D15*
X009408Y013231D03*
X010408Y014731D03*
X007408Y014731D03*
X007408Y013231D03*
X007408Y018031D03*
X011408Y018031D03*
D16*
X010408Y016331D03*
X007408Y016331D03*
X007386Y011745D03*
X008386Y011745D03*
D17*
X012774Y007151D03*
X012774Y006561D03*
D18*
X014072Y006637D03*
X014072Y007463D03*
D19*
X015571Y007833D03*
X015571Y006655D03*
D20*
X018162Y014993D03*
X018674Y014993D03*
D21*
X018654Y013812D03*
X017985Y013812D03*
D22*
X017847Y012336D03*
X018595Y012336D03*
D23*
X018575Y010761D03*
X017473Y010761D03*
D24*
X017483Y009186D03*
X018566Y009186D03*
D25*
X018428Y005840D03*
X017227Y005840D03*
D26*
X015492Y002066D03*
X013503Y002066D03*
D27*
X013017Y004533D03*
X015517Y004533D03*
D28*
X017188Y003871D03*
X018467Y003871D03*
X018408Y007611D03*
X017247Y007611D03*
D29*
X011312Y001824D03*
X010938Y001824D03*
X010564Y001824D03*
X010564Y000800D03*
X010938Y000800D03*
X011312Y000800D03*
D30*
X011312Y010170D03*
X010564Y010170D03*
X010938Y010958D03*
D31*
X011938Y012526D03*
D32*
X010915Y012959D03*
X010915Y012092D03*
D33*
X013050Y010993D03*
X013956Y010993D03*
X014861Y010993D03*
D34*
X013956Y013395D03*
D35*
X012952Y014894D03*
X015078Y014894D03*
D36*
X014015Y014894D03*
D37*
X014015Y017335D03*
D38*
X010573Y007474D03*
X010573Y006962D03*
X011302Y007218D03*
D39*
X010436Y008438D03*
X010436Y009147D03*
D40*
X011440Y008792D03*
D41*
X011666Y005741D03*
X010209Y005741D03*
D42*
X010505Y004462D03*
X011371Y004462D03*
D43*
X011231Y003196D03*
X010601Y003196D03*
D44*
X001686Y015185D03*
D45*
X001686Y013414D03*
M02*
